<?xml version="1.0" standalone="no"?><!DOCTYPE svg PUBLIC "-//W3C//DTD SVG 1.1//EN" "http://www.w3.org/Graphics/SVG/1.1/DTD/svg11.dtd"><svg t="1513130802349" class="icon" style="" viewBox="0 0 1024 1024" version="1.1" xmlns="http://www.w3.org/2000/svg" p-id="1833" xmlns:xlink="http://www.w3.org/1999/xlink" width="30" height="30"><defs><style type="text/css"></style></defs><path d="M836.843 316.395c-68.77-68.542-160.195-106.288-257.434-106.288H166.107L278.931 97.282l-33.15-33.15L76.372 233.55l169.41 169.416 33.15-33.15-112.824-112.83h413.301c84.747 0 164.422 32.891 224.342 92.61 59.901 59.7 92.888 139.069 92.888 223.484v23.414c0 84.418-32.987 163.785-92.888 223.485-59.92 59.724-139.588 92.61-224.342 92.61H109.52v46.878h469.888c97.239 0 188.664-37.748 257.434-106.283 68.788-68.564 106.673-159.72 106.673-256.69v-23.415c0-96.964-37.884-188.126-106.672-256.683z m0 0" fill="#0fa4a1" p-id="1834"></path></svg>