<?xml version="1.0" encoding="utf-8"?>
<!-- Generator: Adobe Illustrator 21.0.0, SVG Export Plug-In . SVG Version: 6.00 Build 0)  -->
<svg version="1.1" id="图层_1" xmlns="http://www.w3.org/2000/svg" xmlns:xlink="http://www.w3.org/1999/xlink" x="0px" y="0px"
	 viewBox="0 0 50 50" style="enable-background:new 0 0 50 50;" xml:space="preserve">
<style type="text/css">
	.st0{fill:#0FA4A1;}
</style>
<path class="st0" d="M25,1C11.8,1,1,11.8,1,25s10.7,24,24,24s24-10.7,24-24S38.2,1,25,1z M25,45.5C13.7,45.5,4.5,36.3,4.5,25
	S13.7,4.5,25,4.5S45.5,13.7,45.5,25S36.3,45.5,25,45.5z M35.6,15.2L22.9,27.7l-5.3-5.1c-0.7-0.7-1.8-0.7-2.5,0
	c-0.7,0.7-0.7,1.8,0,2.4l6.5,6.4c0.7,0.7,1.8,0.7,2.5,0L38,17.6c0.7-0.7,0.7-1.8,0-2.4C37.4,14.5,36.3,14.5,35.6,15.2z"/>
</svg>
