<?xml version="1.0" standalone="no"?><!DOCTYPE svg PUBLIC "-//W3C//DTD SVG 1.1//EN" "http://www.w3.org/Graphics/SVG/1.1/DTD/svg11.dtd"><svg t="1513162582317" class="icon" style="" viewBox="0 0 1024 1024" version="1.1" xmlns="http://www.w3.org/2000/svg" p-id="3319" xmlns:xlink="http://www.w3.org/1999/xlink" width="50" height="50"><defs><style type="text/css"></style></defs><path d="M512 64C264.32 64 64 264.32 64 512s200.32 448 448 448c247.68 0 448-200.32 448-448S759.68 64 512 64zM512 896c-211.84 0-384-172.16-384-384s172.16-384 384-384c211.84 0 384 172.16 384 384S723.84 896 512 896zM709.76 328.32 472.32 561.92l-98.56-96c-12.8-12.8-33.28-12.8-46.08 0-12.8 12.8-12.8 33.28 0 45.44l121.6 119.04c12.8 12.8 33.28 12.8 46.08 0l260.48-256c12.8-12.8 12.8-33.28 0-45.44C743.68 315.52 722.56 315.52 709.76 328.32z" p-id="3320" fill="#0fa4a1"></path></svg>