<?xml version="1.0" encoding="utf-8"?>
<!-- Generator: Adobe Illustrator 21.0.0, SVG Export Plug-In . SVG Version: 6.00 Build 0)  -->
<svg version="1.1" id="图层_1" xmlns="http://www.w3.org/2000/svg" xmlns:xlink="http://www.w3.org/1999/xlink" x="0px" y="0px"
	 viewBox="0 0 50 50" style="enable-background:new 0 0 50 50;" xml:space="preserve">
<style type="text/css">
	.st0{fill:none;stroke:#0FA4A1;stroke-width:3;stroke-miterlimit:10;}
	.st1{fill:#0FA4A1;}
</style>
<circle class="st0" cx="25" cy="25.2" r="23.1"/>
<g>
	<path class="st1" d="M34.9,35L34.9,35c-0.6,0.6-1.4,0.6-1.9,0.1L15.1,17.2c-0.5-0.5-0.5-1.3,0-1.8l0.1-0.1c0.5-0.5,1.3-0.5,1.8,0
		l17.9,17.9C35.4,33.7,35.4,34.5,34.9,35z"/>
	<path class="st1" d="M34.8,15.3L34.8,15.3c0.6,0.6,0.6,1.4,0.1,1.9L17,35.1c-0.5,0.5-1.3,0.5-1.8,0L15.1,35c-0.5-0.5-0.5-1.3,0-1.8
		L33,15.3C33.5,14.8,34.3,14.8,34.8,15.3z"/>
</g>
</svg>
