<?xml version="1.0" standalone="no"?><!DOCTYPE svg PUBLIC "-//W3C//DTD SVG 1.1//EN" "http://www.w3.org/Graphics/SVG/1.1/DTD/svg11.dtd"><svg t="1508310889291" class="icon" style="" viewBox="0 0 1024 1024" version="1.1" xmlns="http://www.w3.org/2000/svg" p-id="2892" xmlns:xlink="http://www.w3.org/1999/xlink" width="80" height="80"><defs><style type="text/css"></style></defs><path d="M512 0C229.257846 0 0 229.257846 0 512s229.257846 512 512 512 512-229.257846 512-512S794.742154 0 512 0z m256 544.019692h-224.019692V768a32.059077 32.059077 0 0 1-64.039385 0v-224.019692H256a32.019692 32.019692 0 0 1 0-64.039385h224.019692V256a32.019692 32.019692 0 0 1 64.039385 0v224.019692H768a32.059077 32.059077 0 0 1 0 64z" fill="#1296db" p-id="2893"></path></svg>