<?xml version="1.0" standalone="no"?><!DOCTYPE svg PUBLIC "-//W3C//DTD SVG 1.1//EN" "http://www.w3.org/Graphics/SVG/1.1/DTD/svg11.dtd"><svg t="1508210545514" class="icon" style="" viewBox="0 0 1024 1024" version="1.1" xmlns="http://www.w3.org/2000/svg" p-id="4370" xmlns:xlink="http://www.w3.org/1999/xlink" width="30" height="30"><defs><style type="text/css"></style></defs><path d="M511.567141 958.258717c-246.323105 0-446.706925-200.382796-446.706925-446.712041 0-246.323105 200.382796-446.706925 446.706925-446.706925 246.329245 0 446.712041 200.382796 446.712041 446.706925C958.279183 757.874897 757.896386 958.258717 511.567141 958.258717L511.567141 958.258717M511.567141 113.949238c-219.23926 0-397.59846 178.357154-397.59846 397.597437 0 219.210607 178.358177 397.6046 397.597437 397.6046 219.210607 0 397.603577-178.39297 397.603577-397.6046C909.171742 292.306392 730.777749 113.949238 511.567141 113.949238L511.567141 113.949238M725.923184 393.075447c-12.506848-12.409634-32.737612-12.284791-45.112454 0.252757L448.201975 628.489084 345.231789 522.686387c-12.31242-12.668531-32.513508-12.892635-45.113477-0.639566-12.638855 12.284791-12.925381 32.513508-0.63752 45.1145l125.652791 129.133056c0.063445 0.093121 0.189312 0.093121 0.252757 0.189312 0.063445 0.063445 0.097214 0.191358 0.160659 0.252757 2.010797 1.981121 4.498454 3.194762 6.861268 4.532223 1.246387 0.671289 2.234901 1.787716 3.50994 2.299369 3.861958 1.596358 7.975649 2.390443 12.059664 2.390443 4.051269 0 8.106632-0.794086 11.932774-2.326998 1.246387-0.511653 2.201132-1.534959 3.384074-2.171456 2.390443-1.339508 4.883217-2.517333 6.922666-4.52813 0.063445-0.063445 0.098237-0.195451 0.189312-0.257873 0.063445-0.094144 0.161682-0.127913 0.258896-0.191358l255.482719-258.262018C738.563062 425.651376 738.431056 405.456429 725.923184 393.075447L725.923184 393.075447M725.923184 393.075447 725.923184 393.075447z" p-id="4371" fill="#0fa4a1"></path></svg>