<?xml version="1.0" standalone="no"?><!DOCTYPE svg PUBLIC "-//W3C//DTD SVG 1.1//EN" "http://www.w3.org/Graphics/SVG/1.1/DTD/svg11.dtd"><svg t="1508912929574" class="icon" style="" viewBox="0 0 1024 1024" version="1.1" xmlns="http://www.w3.org/2000/svg" p-id="3688" xmlns:xlink="http://www.w3.org/1999/xlink" width="30" height="30"><defs><style type="text/css"></style></defs><path d="M568.55 291.931v13.742c-0.001 137.863 0.083 275.727-0.057 413.59-0.041 39.877-35.098 66.867-72.571 56.387-23.707-6.631-37.633-25.46-37.642-51.43-0.049-137.863-0.024-275.727-0.024-413.59v-17.592c-17.872 17.129-33.191 31.759-48.453 46.45-28.038 26.989-55.913 54.148-84.098 80.982-23.715 22.577-57.973 22.536-80.318 0.321-22.255-22.125-22.674-56.945 0.525-80.134a42404.068 42404.068 0 0 1 228.45-226.598c22.617-22.266 53.693-22.42 77.042-0.431 27.75 26.134 54.515 53.317 81.606 80.147 48.547 48.08 97.062 96.191 145.503 144.378 24.28 24.152 25.207 58.984 2.412 81.957-22.846 23.024-57.696 22.373-81.85-1.712-39.669-39.554-79.304-79.143-118.718-118.951-2.927-2.956-3.967-7.781-5.885-11.737l-5.922 4.221zM511.997 926.847c-69.879 0.001-139.759 0.015-209.638-0.006-31.496-0.01-54.083-21.052-54.444-50.634-0.361-29.571 21.417-51.689 53.129-51.977 61.139-0.556 122.287-0.194 183.432-0.199 79.011-0.006 158.023-0.13 237.034 0.063 35.345 0.086 58.387 22.481 56.74 54.36-1.43 27.683-23.307 48.304-51.85 48.353-71.468 0.121-142.935 0.04-214.403 0.04z" p-id="3689" fill="#ffffff"></path></svg>