<?xml version="1.0" encoding="utf-8"?>
<!-- Generator: Adobe Illustrator 21.0.0, SVG Export Plug-In . SVG Version: 6.00 Build 0)  -->
<svg version="1.1" id="图层_1" xmlns="http://www.w3.org/2000/svg" xmlns:xlink="http://www.w3.org/1999/xlink" x="0px" y="0px"
	 viewBox="0 0 48 48" style="enable-background:new 0 0 48 48;" xml:space="preserve">
<style type="text/css">
	.st0{fill:#FFFFFF;}
</style>
<g>
	<path class="st0" d="M38.9,34.3c-0.4,0-0.7,0-1.1,0.1L25.2,21.7v-8c2-0.5,3.5-2.4,3.5-4.6c0-2.6-2.1-4.7-4.7-4.7s-4.7,2.1-4.7,4.7
		c0,2.2,1.5,4,3.5,4.6v8L10.1,34.4c-0.3-0.1-0.7-0.1-1.1-0.1c-2.6,0-4.7,2.1-4.7,4.7c0,2.6,2.1,4.7,4.7,4.7s4.7-2.1,4.7-4.7
		c0-1.3-0.6-2.6-1.5-3.4L22.8,25v9.4c-2,0.5-3.5,2.4-3.5,4.6c0,2.6,2.1,4.7,4.7,4.7s4.7-2.1,4.7-4.7c0-2.2-1.5-4-3.5-4.6V25
		l10.5,10.5c-0.9,0.9-1.5,2.1-1.5,3.4c0,2.6,2.1,4.7,4.7,4.7c2.6,0,4.7-2.1,4.7-4.7C43.6,36.4,41.5,34.3,38.9,34.3L38.9,34.3z"/>
	<path class="st0" d="M35.9,16.9c-1.8,0-3.2,1.5-3.2,3.2c0,1.8,1.5,3.2,3.2,3.2c1.8,0,3.2-1.5,3.2-3.2
		C39.1,18.4,37.7,16.9,35.9,16.9z M35.9,22.3c-1.2,0-2.2-1-2.2-2.2s1-2.2,2.2-2.2s2.2,1,2.2,2.2C38,21.3,37.1,22.3,35.9,22.3z
		 M42.7,17.7h-0.3v-0.1h-0.1l0.1-0.1c0-0.1-0.1-0.3-0.2-0.4V17l0.2-0.2c0.4-0.4,0.6-1,0.6-1.6s-0.2-1.1-0.6-1.6l-0.3-0.3
		c-0.4-0.4-1-0.6-1.6-0.6s-1.1,0.2-1.6,0.6l-0.2,0.2h-0.1c-0.1-0.1-0.3-0.1-0.4-0.2h-0.1V13c0-1.2-1-2.2-2.2-2.2h-0.4
		c-1.2,0-2.2,1-2.2,2.2v0.3h-0.1c-0.1,0.1-0.3,0.1-0.4,0.2h-0.1l-0.2-0.2c-0.4-0.4-1-0.6-1.6-0.6s-1.1,0.2-1.6,0.6L29,13.6
		c-0.4,0.4-0.6,1-0.6,1.6s0.2,1.1,0.6,1.6l0.2,0.2v0.1c-0.1,0.1-0.1,0.3-0.2,0.4v0.1h0c-1.2,0-2.2,1-2.2,2.2v0.4
		c0,1.2,1,2.2,2.2,2.2h0.3v0.1c0,0.1,0.1,0.3,0.2,0.4V23l-0.2,0.2c-0.4,0.4-0.6,1-0.6,1.6s0.2,1.1,0.6,1.6l0.3,0.3
		c0.4,0.4,1,0.6,1.6,0.6s1.1-0.2,1.6-0.6l0.2-0.2h0.1c0.1,0.1,0.3,0.1,0.4,0.2h0.1V27c0,1.2,1,2.2,2.2,2.2h0.4c1.2,0,2.2-1,2.2-2.2
		v-0.3h0.1c0.1-0.1,0.3-0.1,0.4-0.2H39l0.2,0.2c0.4,0.4,1,0.6,1.6,0.6s1.1-0.2,1.6-0.6l0.3-0.3c0.4-0.4,0.6-1,0.6-1.6
		s-0.2-1.1-0.6-1.6L42.5,23v-0.1c0.1-0.1,0.1-0.2,0.2-0.4h-0.1h0.1v-0.1H43c1.2,0,2.2-1,2.2-2.2v-0.4C44.9,18.7,44,17.7,42.7,17.7z
		 M43.9,20.3c0,0.1,0,0.1,0,0.2c0,0,0,0,0,0.1l0,0v0.1c0,0,0,0.1-0.1,0.1l0,0c0,0,0,0,0,0.1L43.7,21l0,0l-0.1,0.1
		c-0.2,0.1-0.4,0.2-0.6,0.2l0,0c0,0,0,0-0.1,0h-1.1v0.1c-0.1,0.6-0.4,1.1-0.7,1.6v0.1l0.8,0.8c0.2,0.2,0.3,0.4,0.3,0.7
		c0,0.1,0,0.1,0,0.2l0,0c0,0,0,0.1,0,0.2c0,0,0,0,0,0.1l0,0v0.1c0,0,0,0.1-0.1,0.1l0,0c0,0,0,0,0,0.1S42,25.5,42,25.6l-0.3,0.3
		C41.6,26,41.6,26,41.5,26c0,0,0,0-0.1,0l0,0v0.1L41.3,26h-0.1h-0.1v0.1L41,26l0,0c0,0,0,0-0.1,0s-0.1,0-0.2,0h-0.1c0,0-0.1,0-0.2,0
		c-0.2,0-0.5-0.1-0.6-0.3L39,25.1h-0.1c-0.5,0.3-1.1,0.6-1.6,0.7h-0.1V27v0.1l0,0c0,0.2-0.1,0.4-0.2,0.6l-0.1,0.1l0,0l-0.1,0.1
		c0,0,0,0-0.1,0l0,0c0,0-0.1,0-0.1,0.1h-0.1l0,0c0,0,0,0-0.1,0s-0.1,0-0.2,0h-0.4c-0.1,0-0.1,0-0.2,0c0,0,0,0-0.1,0l0,0h-0.1
		c0,0-0.1,0-0.1-0.1l0,0l0,0l-0.1-0.1l0,0c0,0-0.1-0.1-0.1-0.2c-0.1-0.2-0.2-0.4-0.2-0.6l0,0c0,0,0,0,0-0.1v-1.1h-0.1
		c-0.6-0.1-1.1-0.4-1.6-0.7h-0.1L32,25.9c-0.2,0.2-0.4,0.3-0.7,0.3c-0.1,0-0.1,0-0.1,0h-0.1c0,0-0.1,0-0.2,0c0,0,0,0-0.1,0l0,0v0.1
		v-0.1h-0.1c0,0-0.1,0-0.1-0.1l0,0c0,0,0,0-0.1,0S30.4,26,30.3,26L30,25.7c-0.1-0.1-0.1-0.1-0.1-0.2c0,0,0,0,0-0.1l0,0v-0.1v-0.1
		v-0.1l0,0c0-0.1,0-0.1,0-0.2l0,0c0-0.1,0-0.1,0-0.2c0-0.2,0.1-0.5,0.3-0.6l0.8-0.8v-0.1c-0.3-0.5-0.6-1.1-0.7-1.6v-0.1H29h-0.1v0.1
		v-0.1c-0.2,0-0.4-0.1-0.6-0.2l-0.1-0.1l0,0l-0.1-0.1l0,0H28l0.1-0.1l0,0v-0.1v-0.1l0,0c0,0,0,0,0-0.1s0-0.1,0-0.2v-0.4
		c0-0.1,0-0.1,0-0.2c0,0,0,0,0-0.1l0,0v-0.1c0,0,0-0.1,0.1-0.1l0,0l0,0l0.1-0.1l0,0l0.1-0.1c0.2-0.1,0.4-0.2,0.6-0.2l0,0
		c0,0,0,0,0.1,0h1.1v-0.1c0.1-0.6,0.4-1.1,0.7-1.6v-0.1l-0.8-0.8c-0.2-0.2-0.3-0.4-0.3-0.7c0-0.1,0-0.1,0-0.2l0,0c0,0,0-0.1,0-0.2
		c0,0,0,0,0-0.1v-0.1v-0.1v-0.1l0,0h-0.1h0.1c0,0,0,0,0-0.1s0.1-0.1,0.1-0.2l0.3-0.3c0.1-0.1,0.1-0.1,0.2-0.1c0,0,0,0,0.1,0l0,0h0.1
		h0.1h0.1l0,0c0.1,0,0.1,0,0.2,0l0,0l0,0c0,0,0.1,0,0.2,0c0.2,0,0.5,0.1,0.6,0.3l0.8,0.8h0.1c0.5-0.3,1.1-0.6,1.6-0.7h0.1v-1.1v-0.1
		l0,0c0-0.2,0.1-0.4,0.2-0.6c0-0.1,0.1-0.1,0.1-0.1l0,0l0.1-0.1c0,0,0,0,0.1,0l0,0c0,0,0.1,0,0.1-0.1h0.1l0,0c0,0,0,0,0.1,0
		s0.1,0,0.2,0h0.4c0.1,0,0.1,0,0.2,0c0,0,0,0,0.1,0l0,0h0.1c0,0,0.1,0,0.1,0.1l0,0l0,0l0.1,0.1l0,0l0.1,0.1c0.1,0.2,0.2,0.4,0.2,0.6
		l0,0c0,0,0,0,0,0.1v1.1h0.1c0.6,0.1,1.1,0.4,1.6,0.7h0.1l0.8-0.8c0.2-0.2,0.4-0.3,0.7-0.3h0.1l0,0l0,0c0,0,0.1,0,0.2,0
		c0,0,0,0,0.1,0l0,0h0.1c0,0,0.1,0,0.1,0.1l0,0c0,0,0,0,0.1,0s0.1,0.1,0.2,0.1l0.3,0.3c0.1,0.1,0.1,0.1,0.1,0.2c0,0,0,0,0,0.1l0,0
		v0.1v0.1v0.1l0,0c0,0.1,0,0.1,0,0.2l0,0c0,0.1,0,0.1,0,0.2c0,0.2-0.1,0.5-0.3,0.6L40.9,17v0.1c0.3,0.5,0.6,1.1,0.7,1.6v0.1h1.1h0.1
		l0,0c0.2,0,0.4,0.1,0.6,0.2c0.1,0,0.1,0.1,0.1,0.1l0,0l0.1,0.1c0,0,0,0,0,0.1l0,0v0.1v0.1l0,0c0,0,0,0,0,0.1s0,0.1,0,0.2L43.9,20.3
		L43.9,20.3z"/>
</g>
</svg>
