<?xml version="1.0" standalone="no"?><!DOCTYPE svg PUBLIC "-//W3C//DTD SVG 1.1//EN" "http://www.w3.org/Graphics/SVG/1.1/DTD/svg11.dtd"><svg t="1512727517785" class="icon" style="" viewBox="0 0 1024 1024" version="1.1" xmlns="http://www.w3.org/2000/svg" p-id="5542" xmlns:xlink="http://www.w3.org/1999/xlink" width="30" height="30"><defs><style type="text/css"></style></defs><path d="M512 0C229.220174 0 0 229.242435 0 512s229.220174 512 512 512c282.779826 0 512-229.242435 512-512S794.779826 0 512 0zM512 979.478261C253.818435 979.478261 44.521739 770.181565 44.521739 512 44.521739 253.818435 253.818435 44.521739 512 44.521739c258.181565 0 467.478261 209.296696 467.478261 467.478261C979.478261 770.181565 770.181565 979.478261 512 979.478261z" p-id="5543" fill="#0fa4a1"></path><path d="M485.62087 667.314087 261.431652 450.80487 230.511304 482.816 454.700522 699.302957 486.733913 730.267826 517.654261 698.212174 826.902261 377.922783 794.89113 347.002435Z" p-id="5544" fill="#0fa4a1"></path></svg>