<?xml version="1.0" encoding="utf-8"?>
<!-- Generator: Adobe Illustrator 21.0.0, SVG Export Plug-In . SVG Version: 6.00 Build 0)  -->
<svg version="1.1" id="图层_1" xmlns="http://www.w3.org/2000/svg" xmlns:xlink="http://www.w3.org/1999/xlink" x="0px" y="0px"
	 viewBox="0 0 48 48" style="enable-background:new 0 0 48 48;" xml:space="preserve">
<style type="text/css">
	.st0{fill:#FFFFFF;}
</style>
<g>
	<g>
		<path class="st0" d="M38.4,9.1c-3.5-2.3-8.3-2.5-11.7-0.4C25.2,9.6,24.5,10,24,10c-0.5,0-1.2-0.3-2.7-1.3c-3.2-2-7.9-1.9-11.5,0.4
			C7.6,10.5,4,14,5,21.3c1.5,10.5,9.6,16,14.3,18.4c0.9,0.5,2.8,1.2,4.7,1.2c1.5,0,3.1-0.4,4.7-1.2c4.7-2.4,12.9-7.9,14.3-18.4
			C44,14,40.5,10.5,38.4,9.1z M32,26.1h-5.8v5.8c0,1.1-0.9,2.1-2.1,2.1c-1.1,0-2.1-0.9-2.1-2.1v-5.8h-5.8c-1.1,0-2.1-0.9-2.1-2.1
			c0-1.1,0.9-2.1,2.1-2.1H22v-5.8c0-1.1,0.9-2.1,2.1-2.1s2.1,0.9,2.1,2.1v5.8H32c1.1,0,2.1,0.9,2.1,2.1S33.1,26.1,32,26.1z"/>
	</g>
</g>
</svg>
