<?xml version="1.0" standalone="no"?><!DOCTYPE svg PUBLIC "-//W3C//DTD SVG 1.1//EN" "http://www.w3.org/Graphics/SVG/1.1/DTD/svg11.dtd"><svg class="icon" width="200px" height="200.00px" viewBox="0 0 1024 1024" version="1.1" xmlns="http://www.w3.org/2000/svg"><path fill="#8a8a8a" d="M551.563064 512.884137l231.774761-231.774761c10.665921-10.667967 10.665921-27.963888 0-38.629809-10.667967-10.666944-27.962865-10.666944-38.629809 0L512.933255 474.254328 281.157471 242.478544c-10.66899-10.666944-27.963888-10.666944-38.629809 0-10.667967 10.665921-10.667967 27.961842 0 38.629809L474.302423 512.884137 242.527662 744.658897c-10.667967 10.667967-10.667967 27.963888 0 38.630832 10.665921 10.665921 27.960819 10.665921 38.629809 0L512.933255 551.513946l231.775784 231.775784c10.666944 10.665921 27.961842 10.665921 38.629809 0 10.665921-10.666944 10.665921-27.962865 0-38.630832L551.563064 512.884137z" /></svg>