<?xml version="1.0" standalone="no"?><!DOCTYPE svg PUBLIC "-//W3C//DTD SVG 1.1//EN" "http://www.w3.org/Graphics/SVG/1.1/DTD/svg11.dtd"><svg t="1513589485269" class="icon" style="" viewBox="0 0 1024 1024" version="1.1" xmlns="http://www.w3.org/2000/svg" p-id="1830" xmlns:xlink="http://www.w3.org/1999/xlink" width="50" height="50"><defs><style type="text/css"></style></defs><path d="M64 512a448 448 0 1 1 896 0A448 448 0 0 1 64 512z m56 0a392 392 0 1 0 784 0 392 392 0 0 0-784 0z m196.032 27.968a27.968 27.968 0 1 1 0-56h296.384L497.024 368.576a28.032 28.032 0 1 1 39.616-39.616l158.4 158.4a27.712 27.712 0 0 1 7.232 24.64 27.52 27.52 0 0 1-7.296 24.64L536.576 695.04a28.032 28.032 0 1 1-39.616-39.616l115.392-115.392h-296.32v-0.064z" p-id="1831" fill="#0fa4a1"></path></svg>