<?xml version="1.0" standalone="no"?><!DOCTYPE svg PUBLIC "-//W3C//DTD SVG 1.1//EN" "http://www.w3.org/Graphics/SVG/1.1/DTD/svg11.dtd"><svg t="1513590214990" class="icon" style="" viewBox="0 0 1024 1024" version="1.1" xmlns="http://www.w3.org/2000/svg" p-id="4938" xmlns:xlink="http://www.w3.org/1999/xlink" width="50" height="50"><defs><style type="text/css"></style></defs><path d="M511.177262 959.092711c-247.369947 0-447.904193-200.538339-447.904193-447.908286s200.534246-447.901123 447.904193-447.901123c247.37404 0 447.904193 200.530153 447.904193 447.901123S758.551302 959.092711 511.177262 959.092711zM511.177262 119.268384c-216.445634 0-391.916041 175.466314-391.916041 391.916041s175.470407 391.912971 391.916041 391.912971c216.45382 0 391.916041-175.463244 391.916041-391.912971S727.631082 119.268384 511.177262 119.268384zM707.135282 539.179013 410.798087 539.179013 526.167674 654.55167c10.936073 10.933003 10.936073 28.658713 0 39.590694-10.933003 10.933003-28.658713 10.933003-39.590694 0L328.223417 535.782659c-6.710842-6.714935-8.794293-15.904225-7.270591-24.597211-1.52268-8.685823 0.559748-17.879206 7.270591-24.594141L486.575958 328.22751c10.933003-10.933003 28.658713-10.933003 39.590694 0 10.936073 10.92891 10.936073 28.658713 0 39.590694L410.798087 483.190861l296.337195 0c15.464203 0 27.994588 12.533454 27.994588 27.993564S722.599486 539.179013 707.135282 539.179013z" p-id="4939" fill="#0fa4a1"></path></svg>