<?xml version="1.0" standalone="no"?><!DOCTYPE svg PUBLIC "-//W3C//DTD SVG 1.1//EN" "http://www.w3.org/Graphics/SVG/1.1/DTD/svg11.dtd"><svg t="1507533922436" class="icon" style="" viewBox="0 0 1084 1024" version="1.1" xmlns="http://www.w3.org/2000/svg" p-id="4692" xmlns:xlink="http://www.w3.org/1999/xlink" width="21.171875" height="20"><defs><style type="text/css"></style></defs><path d="M902.183781 516.908277l0.050984-0.050984L610.637481 252.85961c-11.488505-10.400836-26.375975-15.261357-41.127487-14.819491-0.067979 0-0.118964-0.03399-0.186943-0.03399-0.169948 0-0.322902 0.101969-0.49285 0.101969-13.391926 0.543835-26.647893 5.404356-37.099713 14.870476L244.908749 512.659569c-8.701353 7.885601-9.364151 21.311516-1.495545 30.012869 4.197723 4.622594 9.95897 6.984875 15.754207 6.984875 5.081454 0 10.179903-1.801452 14.241667-5.48933L548.079513 295.465648 548.079513 769.077557c0 11.726432 9.517105 21.243537 21.243537 21.243537s21.243537-9.517105 21.243537-21.243537L590.566587 291.981708l283.150855 256.383998L873.904385 548.144773c3.704873 3.127049 8.310472 5.217413 13.544879 5.217413 11.726432 0 21.243537-9.517105 21.243537-21.243537C908.675806 526.136469 906.160571 520.783098 902.183781 516.908277z" p-id="4693" fill="#ffffff"></path></svg>