<?xml version="1.0" encoding="utf-8"?>
<!-- Generator: Adobe Illustrator 21.0.0, SVG Export Plug-In . SVG Version: 6.00 Build 0)  -->
<svg version="1.1" id="图层_1" xmlns="http://www.w3.org/2000/svg" xmlns:xlink="http://www.w3.org/1999/xlink" x="0px" y="0px"
	 viewBox="0 0 48 48" style="enable-background:new 0 0 48 48;" xml:space="preserve">
<style type="text/css">
	.st0{fill:#FFFDFD;}
</style>
<path class="st0" d="M15,33.6c1.1-0.6,2.3-1.1,3.7-1.5c0.7-0.2,1.3-0.3,2-0.5c-0.8-0.8-1.4-1.8-1.9-2.8c-0.4-0.2-0.8-0.4-1.1-0.7
	c-0.3-0.3-0.6-0.6-0.8-0.9c-1-1.4-1.3-3-0.9-4.7c0.1-0.5,0.3-0.9,0.6-1.4c0.1-0.2,0.3-0.4,0.5-0.6c0-0.3,0-0.5,0-0.8
	c0.1-1.4,0.4-2.7,0.8-3.8c1.1-2.7,3-4.5,5.8-5.4c1-0.3,2-0.5,3.1-0.5h0.6c1.2,0,2.3,0.1,3.4,0.4c0.1,0,0.2,0.1,0.3,0.1
	c0-0.5-0.1-0.9-0.1-1.3C30.8,8.2,30.5,7,30.1,6c-0.7-1.8-1.8-3.2-3.4-4.2c-0.9-0.6-2-1.1-3.3-1.3c-1.6-0.4-3.3-0.5-5.2-0.3
	c-1,0.1-2,0.3-3,0.6C12.8,1.8,11,3.5,9.8,5.9c-0.6,1.3-1,2.9-1.1,4.7c-0.1,1-0.1,2.1,0,3.2V14H8.5c-0.3-0.1-0.6,0-0.8,0.2
	c-0.2,0.1-0.3,0.3-0.4,0.5C7.1,15,7,15.3,7,15.7c-0.1,0.8,0,1.7,0.3,2.6c0.2,0.5,0.4,1,0.7,1.3c0.2,0.2,0.5,0.4,0.7,0.5
	c0.4,0.2,0.7,0.1,1.1-0.1l0.1-0.1C10,20,10,20,10,20.1c0.6,1.7,1.4,3.1,2.4,4.4c0.6,0.7,1.2,1.3,1.9,1.9c0.1,0,0.1,0.1,0.1,0.1
	c0,0,0,0.1,0.1,0.2c0,0.1,0.1,0.1,0.2,0.3c0.1,0.1,0.1,0.2,0.2,0.3c0.3,0.5,0.5,1,0.6,1.5c0.2,1-0.1,1.7-1,2.1c-0.1,0-0.1,0-0.2,0
	c-0.1,0-0.2,0.1-0.4,0.1c-0.2,0-0.4,0-0.4,0.1c-1.5,0.2-3,0.5-4.5,0.9c-1.7,0.4-3.2,1-4.5,1.6c-1,0.5-1.9,1.1-2.6,1.8
	C1,36,0.5,36.8,0.2,37.6c0,0.1,0,0.2,0,0.3v2.2h11v-1.5c0-0.4,0.1-0.8,0.2-1.2v0c0.3-0.8,0.8-1.5,1.5-2.2
	C13.4,34.7,14.1,34.1,15,33.6L15,33.6L15,33.6z M34.1,26.1c0-0.1,0.1-0.1,0.1-0.2h0.1c0.3,0.1,0.5,0.1,0.8,0
	c0.2-0.2,0.3-0.3,0.5-0.4c0.6-0.8,0.8-1.8,0.6-2.8c0-0.2-0.1-0.4-0.3-0.6c-0.2-0.2-0.4-0.3-0.7-0.3H35v-2c0-0.8-0.2-1.7-0.4-2.5
	c-0.3-1.1-0.9-1.9-1.5-2.6c-0.8-0.8-1.7-1.3-2.9-1.6c-0.9-0.3-2-0.4-3.2-0.3c-0.8,0-1.6,0.2-2.4,0.4c-2,0.6-3.4,1.9-4.2,3.8
	c-0.3,0.9-0.6,1.9-0.7,3c0,0.6,0,1.3,0,2.1v0.1h-0.1c-0.3-0.1-0.6,0.1-0.8,0.4c-0.1,0.2-0.2,0.4-0.2,0.6c-0.2,1,0,1.9,0.5,2.7
	c0.1,0.1,0.2,0.2,0.3,0.3c0.4,0.3,0.8,0.3,1.1,0.1l0.1,0.2c0,0.1,0.1,0.2,0.1,0.3s0.1,0.3,0.1,0.4c0.7,1.5,1.6,2.6,2.6,3.5l0,0
	c0,0,0.1,0.1,0.2,0.3c0.2,0.3,0.4,0.6,0.5,0.8c0.1,0.3,0.1,0.5,0.1,0.8c0,0.3-0.1,0.6-0.3,0.8s-0.4,0.3-0.7,0.4
	c-1.3,0.1-2.6,0.4-3.8,0.8c-1.2,0.3-2.3,0.8-3.1,1.3c-0.7,0.4-1.2,0.8-1.6,1.2c-0.4,0.4-0.7,0.9-0.9,1.3c0,0.1,0,0.2,0,0.3v1.5h16.6
	l0.2-0.1c0.1-0.1,0.2-0.2,0.1-0.3c0,0,0,0,0,0l-2.6-1.5l2.7-4.6c-0.4-0.3-0.6-0.7-0.5-1.2c0.1-0.3,0.2-0.7,0.3-1
	c0-0.1,0.1-0.2,0.2-0.3c0.1-0.1,0.2-0.2,0.2-0.3c0.1-0.1,0.2-0.2,0.3-0.4c0.4-0.3,0.8-0.7,1.1-1.1C33.1,28.4,33.7,27.4,34.1,26.1
	L34.1,26.1z M46.8,41.5c-0.4-0.8-0.5-1.5-0.3-2.3s0.7-1.5,1.4-1.9l-1.6-2.8c-0.4,0.3-0.9,0.4-1.5,0.4c-0.9,0-1.6-0.3-2.2-0.9
	s-0.9-1.4-0.9-2.3h-3.2c0,0.7-0.1,1.2-0.4,1.5c-0.4,0.8-1,1.2-1.9,1.4c-0.8,0.2-1.6,0.1-2.4-0.3l-1.6,2.8c0.5,0.3,0.8,0.6,1.1,1.1
	c0.4,0.8,0.5,1.6,0.3,2.4c-0.2,0.8-0.7,1.5-1.4,1.9l1.6,2.8c0.3-0.3,0.9-0.4,1.5-0.4c0.8,0,1.6,0.3,2.2,0.9c0.6,0.6,0.9,1.3,0.9,2.1
	h3.1c0-0.6,0.1-1.1,0.4-1.5c0.4-0.8,1-1.2,1.9-1.5c0.8-0.2,1.7-0.1,2.4,0.3l1.6-2.8C47.5,42.4,47.2,42.1,46.8,41.5L46.8,41.5z
	 M40.1,43.2c-1.2,0-2.1-0.5-2.8-1.5c-0.6-1-0.7-2.1-0.1-3.2c0.5-1,1.3-1.5,2.3-1.7c1-0.2,1.9,0.1,2.7,0.7c0.8,0.7,1.1,1.5,1.1,2.5
	c0,0.9-0.3,1.6-0.9,2.3C41.8,42.9,41,43.2,40.1,43.2L40.1,43.2z"/>
</svg>
