<?xml version="1.0" encoding="utf-8"?>
<!-- Generator: Adobe Illustrator 21.0.0, SVG Export Plug-In . SVG Version: 6.00 Build 0)  -->
<svg version="1.1" id="图层_1" xmlns="http://www.w3.org/2000/svg" xmlns:xlink="http://www.w3.org/1999/xlink" x="0px" y="0px"
	 viewBox="0 0 48 48" style="enable-background:new 0 0 48 48;" xml:space="preserve">
<style type="text/css">
	.st0{fill:#FFFFFF;}
</style>
<path class="st0" d="M45.3,8.3H12.5l-1.1-2.6C11.1,5.3,10.7,5,10.2,5H2.6C1.9,5,1.4,5.5,1.4,6.2s0.6,1.3,1.3,1.3h6.7l1,2.4v25.1h-2
	c-0.6,0-1.1,0.5-1.1,1.1s0.5,1.1,1.1,1.1h2v1.5c-1.6,0.5-2.7,1.9-2.7,3.7c0,2.1,1.7,3.9,3.9,3.9c2.1,0,3.9-1.7,3.9-3.9
	c0-1.7-1-3.1-2.5-3.6v-1.5l24.5,0v1.4c-1.6,0.5-2.7,1.9-2.7,3.7c0,2.1,1.7,3.9,3.9,3.9c2.1,0,3.9-1.7,3.9-3.9c0-1.7-1.2-3.2-2.7-3.7
	v-1.4h0.2c0.6,0,1.1-0.5,1.1-1.1s-0.5-1.1-1.1-1.1l-26.9,0v-5.7c0,0,0,0,0,0l32.6-2.8c0.6-0.1,1-0.6,1-1.2V9.6
	C46.5,8.9,46,8.3,45.3,8.3z M34.4,19.1h-4.9V24h-2.8v-4.9h-4.9v-2.8h4.9v-4.9h2.8v4.9h4.9V19.1z"/>
</svg>
