<?xml version="1.0" encoding="utf-8"?>
<!-- Generator: Adobe Illustrator 21.0.0, SVG Export Plug-In . SVG Version: 6.00 Build 0)  -->
<svg version="1.1" id="图层_1" xmlns="http://www.w3.org/2000/svg" xmlns:xlink="http://www.w3.org/1999/xlink" x="0px" y="0px"
	 viewBox="0 0 48 48" style="enable-background:new 0 0 48 48;" xml:space="preserve">
<style type="text/css">
	.st0{fill:#FFFFFF;}
</style>
<g>
	<path class="st0" d="M44.3,21.8c-0.3,0-0.6-0.1-0.9-0.3l-20-15.6L3.8,21.5c-0.6,0.5-1.6,0.4-2.1-0.2c-0.5-0.6-0.4-1.6,0.2-2.1
		L22.4,2.8c0.5-0.4,1.3-0.4,1.9,0l21,16.3c0.7,0.5,0.8,1.5,0.3,2.1C45.2,21.6,44.7,21.8,44.3,21.8z"/>
	<path class="st0" d="M28.2,45.1H7.1c-0.8,0-1.5-0.7-1.5-1.5V23c0-0.8,0.7-1.5,1.5-1.5s1.5,0.7,1.5,1.5v19.1h19.6
		c0.8,0,1.5,0.7,1.5,1.5S29,45.1,28.2,45.1z"/>
	<path class="st0" d="M39.8,23v6.8"/>
	<path class="st0" d="M39.8,31.3c-0.8,0-1.5-0.7-1.5-1.5V23c0-0.8,0.7-1.5,1.5-1.5s1.5,0.7,1.5,1.5v6.8
		C41.3,30.6,40.7,31.3,39.8,31.3z M45.5,38.7H28.6c-0.7,0-1.2-0.5-1.2-1.2s0.5-1.2,1.2-1.2h16.9c0.7,0,1.2,0.5,1.2,1.2
		S46.2,38.7,45.5,38.7z M11.1,29.8h3.7v3.7h-3.7V29.8z M11.1,35.6h3.7v3.7h-3.7V35.6z M16.5,35.6h3.7v3.7h-3.7V35.6z"/>
	<path class="st0" d="M42.5,41.9c-0.3,0-0.6-0.1-0.9-0.3c-0.5-0.5-0.5-1.2,0-1.7l2.3-2.3l-2.3-2.7c-0.4-0.5-0.4-1.3,0.1-1.7
		c0.5-0.4,1.3-0.4,1.7,0.1l3.1,3.6c0.4,0.5,0.4,1.2-0.1,1.6l-3.1,3.1C43.1,41.7,42.8,41.9,42.5,41.9z"/>
</g>
</svg>
