<?xml version="1.0" standalone="no"?><!DOCTYPE svg PUBLIC "-//W3C//DTD SVG 1.1//EN" "http://www.w3.org/Graphics/SVG/1.1/DTD/svg11.dtd"><svg class="icon" width="200px" height="200.00px" viewBox="0 0 1024 1024" version="1.1" xmlns="http://www.w3.org/2000/svg"><path fill="#8a8a8a" d="M964.547445 73.389474c-10.883885-10.883885-28.514427-10.883885-39.398312 0l-93.735871 93.732801-92.26231-92.25003c-10.856255-10.882861-28.514427-10.882861-39.398312 0-10.883885 10.870582-10.883885 28.514427 0 39.398312l92.261287 92.249007L568.630277 429.895027c-54.939263-52.106752-129.164778-84.079954-210.863499-84.079954-169.265078 0-306.47816 137.213082-306.47816 306.47816 0 169.265078 137.213082 306.47816 306.47816 306.47816 169.265078 0 306.47816-137.213082 306.47816-306.47816 0-67.469648-21.817911-129.832997-58.760289-180.456978L964.547445 112.786763C975.43133 101.903901 975.43133 84.259032 964.547445 73.389474zM608.521822 652.294256c0 138.492214-112.26283 250.755044-250.755044 250.755044-138.491191 0-250.754021-112.26283-250.754021-250.755044s112.26283-250.755044 250.754021-250.755044C496.258992 401.539212 608.521822 513.802042 608.521822 652.294256z" /></svg>