<?xml version="1.0" standalone="no"?><!DOCTYPE svg PUBLIC "-//W3C//DTD SVG 1.1//EN" "http://www.w3.org/Graphics/SVG/1.1/DTD/svg11.dtd"><svg t="1512728177020" class="icon" style="" viewBox="0 0 1024 1024" version="1.1" xmlns="http://www.w3.org/2000/svg" p-id="7638" xmlns:xlink="http://www.w3.org/1999/xlink" width="35" height="35"><defs><style type="text/css"></style></defs><path d="M505.9072 4.7104C226.4576 4.7104 0.5376 230.656 0.5376 510.08s225.9456 505.3696 505.3696 505.3696 505.3696-225.9456 505.3696-505.3696S785.3568 4.7104 505.9072 4.7104z m0 951.296c-243.7632 0-445.9264-202.1376-445.9264-445.9264S262.144 64.1792 505.9072 64.1792s445.9264 202.1376 445.9264 445.9264-202.1632 445.9008-445.9264 445.9008z" p-id="7639" fill="#0fa4a1"></path><path d="M772.864 334.4896a40.448 40.448 0 0 0-57.1904 0L458.368 591.7952l-142.9504-142.9504a40.448 40.448 0 1 0-57.1904 57.1904l171.5456 171.5456a40.448 40.448 0 0 0 57.1904 0L772.864 391.68a40.448 40.448 0 0 0 0-57.1904z" p-id="7640" fill="#0fa4a1"></path></svg>