<?xml version="1.0" encoding="utf-8"?>
<!-- Generator: Adobe Illustrator 21.0.0, SVG Export Plug-In . SVG Version: 6.00 Build 0)  -->
<svg version="1.1" id="图层_1" xmlns="http://www.w3.org/2000/svg" xmlns:xlink="http://www.w3.org/1999/xlink" x="0px" y="0px"
	 viewBox="0 0 48 48" style="enable-background:new 0 0 48 48;" xml:space="preserve">
<style type="text/css">
	.st0{fill:#FFFFFF;}
</style>
<path class="st0" d="M24,30c-1.9,0-3,0.1-3,0.8c0,0.6-0.4,2.3,3,2.3c3.1,0,3-1.6,3-2.3C27,30.1,25.9,30,24,30z M23.9,35.1
	c-0.3,0-0.8,0.1-1.5-0.2C21.3,37,21,39.8,21,41.1c0,1.8,3,3.9,3,3.9s3-2,3-3.9c0-1.3-0.3-4.1-1.6-6.2C25,35,24.5,35.1,23.9,35.1z"/>
<path class="st0" d="M39,32c0.1,0,0.3,0,0.4,0c-1.1-1.5-2.3-2.8-3.8-4c-0.6-0.5-2.9-1.9-4.6-2.2c4.1-2.3,5.4-6.6,5.4-10.3
	C36.4,8.6,30.9,3,24,3c-6.9,0-12.4,5.6-12.4,12.5c0,4.2,2.2,8.1,5.6,10.4c-6.9,2.8-11.6,9.6-11.6,17.2c0,0.9,0.8,1.7,1.7,1.7
	S9,44.1,9,43.1C9,34.8,15.7,28,24,28c3.7,0,8,0.7,9.8,2.4c0.8,0.8,1.5,1.7,2.2,2.5C36.8,32.4,37.8,32,39,32z M24,24.6
	c-5,0-9-4.1-9-9.1s4.1-9.1,9-9.1c5,0,9,4.1,9,9.1S29,24.6,24,24.6z"/>
<path class="st0" d="M39.4,36.3c-1.7,0-3.1,1.4-3.1,3.1c0,1.7,1.4,3.1,3.1,3.1s3.1-1.4,3.1-3.1C42.6,37.7,41.2,36.3,39.4,36.3z
	 M39.4,41.6c-1.2,0-2.1-0.9-2.1-2.1c0-1.2,0.9-2.1,2.1-2.1c1.2,0,2.1,0.9,2.1,2.1C41.5,40.6,40.6,41.6,39.4,41.6z M46.1,37.1h-0.3
	l0-0.1l-0.1,0l0.1-0.1c0-0.1-0.1-0.2-0.2-0.4l0-0.1l0.2-0.2c0.4-0.4,0.6-0.9,0.6-1.5s-0.2-1.1-0.6-1.5l-0.3-0.3
	c-0.4-0.4-0.9-0.6-1.5-0.6c-0.6,0-1.1,0.2-1.5,0.6l-0.2,0.2l-0.1,0c-0.1-0.1-0.3-0.1-0.4-0.2l-0.1,0v-0.3c0-1.2-1-2.1-2.1-2.1h-0.4
	c-1.2,0-2.1,1-2.1,2.1v0.3l-0.1,0c-0.1,0.1-0.3,0.1-0.4,0.2l-0.1,0l-0.2-0.2c-0.4-0.4-0.9-0.6-1.5-0.6c-0.6,0-1.1,0.2-1.5,0.6
	l-0.3,0.3c-0.4,0.4-0.6,0.9-0.6,1.5c0,0.6,0.2,1.1,0.6,1.5l0.2,0.2l0,0.1c-0.1,0.1-0.1,0.2-0.2,0.4l0,0.1h-0.3c-1.2,0-2.1,1-2.1,2.1
	v0.4c0,1.2,1,2.1,2.1,2.1h0.3l0,0.1c0,0.1,0.1,0.2,0.2,0.4l0,0.1l-0.2,0.2c-0.4,0.4-0.6,0.9-0.6,1.5c0,0.6,0.2,1.1,0.6,1.5l0.3,0.3
	c0.4,0.4,0.9,0.6,1.5,0.6s1.1-0.2,1.5-0.6l0.2-0.2l0.1,0c0.1,0.1,0.3,0.1,0.4,0.2l0.1,0v0.3c0,1.2,1,2.1,2.1,2.1h0.4
	c1.2,0,2.1-1,2.1-2.1v-0.3l0.1,0c0.1,0,0.3-0.1,0.4-0.2l0.1,0l0.2,0.2c0.4,0.4,0.9,0.6,1.5,0.6c0.6,0,1.1-0.2,1.5-0.6l0.3-0.3
	c0.4-0.4,0.6-0.9,0.6-1.5c0-0.6-0.2-1.1-0.6-1.5l-0.2-0.2l0-0.1c0-0.1,0.1-0.2,0.2-0.4l-0.1,0l0.1,0l0-0.1h0.3c1.2,0,2.1-1,2.1-2.1
	v-0.4C48.2,38.1,47.3,37.1,46.1,37.1z M47.2,39.7c0,0.1,0,0.1,0,0.2c0,0,0,0,0,0.1l0,0c0,0,0,0.1,0,0.1c0,0,0,0.1-0.1,0.1l0,0
	c0,0,0,0,0,0c0,0-0.1,0.1-0.1,0.1c0,0,0,0,0,0c0,0-0.1,0.1-0.1,0.1c-0.2,0.1-0.4,0.2-0.6,0.2c0,0,0,0,0,0c0,0,0,0-0.1,0H45l0,0.1
	c-0.1,0.5-0.4,1.1-0.7,1.6l0,0.1l0.8,0.8c0.2,0.2,0.3,0.4,0.3,0.6c0,0.1,0,0.1,0,0.2c0,0,0,0,0,0c0,0,0,0.1,0,0.2c0,0,0,0,0,0.1l0,0
	c0,0,0,0.1,0,0.1c0,0,0,0.1-0.1,0.1l0,0c0,0,0,0,0,0.1c0,0.1-0.1,0.1-0.1,0.2l-0.3,0.3c-0.1,0.1-0.1,0.1-0.2,0.1c0,0,0,0-0.1,0l0,0
	l0,0.1l-0.1-0.1c0,0-0.1,0-0.1,0c0,0-0.1,0-0.1,0l0,0.1l-0.1-0.1l0,0c0,0,0,0,0,0c-0.1,0-0.1,0-0.1,0l-0.1,0c0,0-0.1,0-0.2,0
	c-0.2,0-0.5-0.1-0.6-0.3l-0.8-0.8l-0.1,0c-0.5,0.3-1.1,0.5-1.6,0.7l-0.1,0v1.1c0,0,0,0.1,0,0.1l0,0c0,0.2-0.1,0.4-0.2,0.6
	c0,0-0.1,0.1-0.1,0.1c0,0,0,0,0,0c0,0-0.1,0.1-0.1,0.1c0,0,0,0-0.1,0l0,0c0,0-0.1,0-0.1,0c0,0-0.1,0-0.1,0l0,0c0,0,0,0-0.1,0
	c-0.1,0-0.1,0-0.2,0h-0.4c-0.1,0-0.1,0-0.2,0c0,0,0,0-0.1,0l0,0c0,0-0.1,0-0.1,0c0,0-0.1,0-0.1-0.1l0,0c0,0,0,0,0,0
	c0,0-0.1-0.1-0.1-0.1c0,0,0,0,0,0c0,0-0.1-0.1-0.1-0.1c-0.1-0.2-0.2-0.4-0.2-0.6l0,0c0,0,0,0,0-0.1v-1.1l-0.1,0
	c-0.5-0.1-1.1-0.4-1.6-0.7l-0.1,0l-0.8,0.8c-0.2,0.2-0.4,0.3-0.6,0.3c-0.1,0-0.1,0-0.1,0l-0.1,0c0,0-0.1,0-0.2,0c0,0,0,0,0,0l0,0
	l0,0.1v-0.1c0,0-0.1,0-0.1,0c0,0-0.1,0-0.1-0.1l0,0c0,0,0,0-0.1,0c-0.1,0-0.1-0.1-0.2-0.1l-0.3-0.3c-0.1-0.1-0.1-0.1-0.1-0.2
	c0,0,0,0,0-0.1l0,0c0,0,0-0.1,0-0.1c0,0,0-0.1,0-0.1l0-0.1c0,0,0,0,0,0c0-0.1,0-0.1,0-0.2l0,0c0-0.1,0-0.1,0-0.2
	c0-0.2,0.1-0.5,0.3-0.6l0.8-0.8l0-0.1c-0.3-0.5-0.5-1-0.7-1.6l0-0.1h-1.1c0,0,0,0-0.1,0l0,0.1l0-0.1c-0.2,0-0.4-0.1-0.6-0.2
	c0,0-0.1-0.1-0.1-0.1c0,0,0,0,0,0c0,0-0.1-0.1-0.1-0.1c0,0,0,0,0,0l-0.1,0l0.1-0.1l0,0c0,0,0-0.1,0-0.1c0,0,0-0.1,0-0.1l0,0
	c0,0,0,0,0-0.1c0-0.1,0-0.1,0-0.2v-0.4c0-0.1,0-0.1,0-0.2c0,0,0,0,0-0.1l0,0c0,0,0-0.1,0-0.1c0,0,0-0.1,0.1-0.1l0,0c0,0,0,0,0,0
	c0,0,0.1-0.1,0.1-0.1c0,0,0,0,0,0c0,0,0.1-0.1,0.1-0.1c0.2-0.1,0.4-0.2,0.6-0.2l0,0c0,0,0,0,0.1,0h1.1l0-0.1
	c0.1-0.5,0.4-1.1,0.7-1.6l0-0.1l-0.8-0.8c-0.2-0.2-0.3-0.4-0.3-0.6c0-0.1,0-0.1,0-0.2l0,0c0,0,0-0.1,0-0.2c0,0,0,0,0,0l0-0.1
	c0,0,0-0.1,0-0.1c0,0,0-0.1,0-0.1l0,0l-0.1,0l0.1,0c0,0,0,0,0-0.1c0-0.1,0.1-0.1,0.1-0.2l0.3-0.3c0.1-0.1,0.1-0.1,0.2-0.1
	c0,0,0,0,0.1,0l0,0c0,0,0.1,0,0.1,0c0,0,0.1,0,0.1,0l0.1,0c0,0,0,0,0,0c0.1,0,0.1,0,0.2,0c0,0,0,0,0,0l0,0c0,0,0.1,0,0.2,0
	c0.2,0,0.5,0.1,0.6,0.3l0.8,0.8l0.1,0c0.5-0.3,1-0.5,1.6-0.7l0.1,0v-1.1c0,0,0-0.1,0-0.1l0,0c0-0.2,0.1-0.4,0.2-0.6
	c0-0.1,0.1-0.1,0.1-0.1c0,0,0,0,0,0c0,0,0.1-0.1,0.1-0.1c0,0,0,0,0.1,0l0,0c0,0,0.1,0,0.1-0.1c0,0,0.1,0,0.1,0l0,0c0,0,0,0,0.1,0
	c0.1,0,0.1,0,0.2,0h0.4c0.1,0,0.1,0,0.2,0c0,0,0,0,0.1,0l0,0c0,0,0.1,0,0.1,0c0,0,0.1,0,0.1,0.1l0,0c0,0,0,0,0,0
	c0,0,0.1,0.1,0.1,0.1c0,0,0,0,0,0c0,0,0.1,0.1,0.1,0.1c0.1,0.2,0.2,0.4,0.2,0.6l0,0c0,0,0,0,0,0.1v1.1l0.1,0
	c0.5,0.1,1.1,0.4,1.6,0.7l0.1,0l0.8-0.8c0.2-0.2,0.4-0.3,0.6-0.3c0,0,0.1,0,0.1,0l0,0c0,0,0,0,0,0c0,0,0.1,0,0.1,0c0,0,0,0,0.1,0
	l0,0c0,0,0.1,0,0.1,0c0,0,0.1,0,0.1,0.1l0,0c0,0,0,0,0,0c0.1,0,0.1,0.1,0.2,0.1l0.3,0.3c0.1,0.1,0.1,0.1,0.1,0.2c0,0,0,0,0,0.1l0,0
	c0,0,0,0.1,0,0.1c0,0,0,0.1,0,0.1l0,0c0,0,0,0,0,0c0,0.1,0,0.1,0,0.2c0,0,0,0,0,0c0,0.1,0,0.1,0,0.2c0,0.2-0.1,0.5-0.3,0.6l-0.8,0.8
	l0,0.1c0.3,0.5,0.5,1,0.7,1.6l0,0.1h1.1c0,0,0,0,0.1,0l0,0c0.2,0,0.4,0.1,0.6,0.2c0.1,0,0.1,0.1,0.1,0.1c0,0,0,0,0,0
	c0,0,0.1,0.1,0.1,0.1c0,0,0,0,0,0.1l0,0c0,0,0,0.1,0,0.1c0,0,0,0.1,0,0.1l0,0c0,0,0,0,0,0.1c0,0.1,0,0.1,0,0.2L47.2,39.7
	C47.2,39.7,47.2,39.7,47.2,39.7z"/>
</svg>
