<?xml version="1.0" standalone="no"?><!DOCTYPE svg PUBLIC "-//W3C//DTD SVG 1.1//EN" "http://www.w3.org/Graphics/SVG/1.1/DTD/svg11.dtd"><svg t="1509346713386" class="icon" style="" viewBox="0 0 1024 1024" version="1.1" xmlns="http://www.w3.org/2000/svg" p-id="3085" xmlns:xlink="http://www.w3.org/1999/xlink" width="30" height="30"><defs><style type="text/css"></style></defs><path d="M62.189899 951.59596c-21.462626 0-39.305051-17.454545-39.305051-39.563637 0-21.462626 17.842424-39.305051 39.305051-39.30505h899.490909c21.462626 0 39.563636 17.842424 39.563636 39.30505 0 22.109091-18.10101 39.563636-39.563636 39.563637H62.189899z m732.315152-656.678788L511.612121 153.729293 228.848485 294.917172h565.656566z m-134.335354 78.99798v428.476767h139.248485V373.915152H660.169697z m-217.729293 0v428.476767h138.860606V373.915152H442.440404z m-218.50505 0v428.476767h139.50707V373.915152H223.935354z m-120.242425 475.797979c-13.187879 0-23.531313-10.860606-23.531313-24.048485 0-12.929293 10.343434-23.272727 23.531313-23.272727h41.632324V373.915152H62.060606c-21.462626 0-39.305051-17.454545-39.30505-39.305051 0-16.937374 10.343434-31.547475 24.694949-36.460606L494.286869 74.214141c11.248485-5.430303 24.436364-4.913131 35.555555 0l449.422222 225.616162c19.006061 9.179798 27.022222 32.969697 17.19596 52.492929-6.852525 13.446465-20.686869 21.462626-35.038384 21.462627h-83.00606v428.476767h41.373737c13.446465 0 23.789899 10.343434 23.789899 23.272728 0 13.187879-10.343434 24.048485-23.789899 24.048484l-816.09697 0.129293z" p-id="3086" fill="#e0620d"></path></svg>