<?xml version="1.0" standalone="no"?><!DOCTYPE svg PUBLIC "-//W3C//DTD SVG 1.1//EN" "http://www.w3.org/Graphics/SVG/1.1/DTD/svg11.dtd"><svg class="icon" width="48px" height="48.00px" viewBox="0 0 1024 1024" version="1.1" xmlns="http://www.w3.org/2000/svg"><path fill="#000000" d="M830.35648 730.720256c-7.963648 0-15.704064 0.95232-23.136256 2.700288L536.756224 462.95552 536.756224 291.340288c43.415552-11.175936 75.496448-50.588672 75.496448-97.491968 0-55.596032-45.068288-100.66432-100.660224-100.66432-55.595008 0-100.66432 45.068288-100.66432 100.66432 0 46.903296 32.079872 86.316032 75.495424 97.491968l0 171.615232L215.959552 733.41952c-7.431168-1.747968-15.171584-2.700288-23.135232-2.700288-55.596032 0-100.66432 45.068288-100.66432 100.661248 0 55.595008 45.068288 100.663296 100.66432 100.663296 55.591936 0 100.663296-45.068288 100.663296-100.663296 0-28.725248-12.051456-54.616064-31.351808-72.956928l224.287744-224.287744 0 199.75168c-43.415552 11.17696-75.495424 50.587648-75.495424 97.492992 0 55.595008 45.068288 100.663296 100.66432 100.663296 55.591936 0 100.660224-45.068288 100.660224-100.663296 0-46.905344-32.079872-86.316032-75.496448-97.492992l0-199.75168 224.287744 224.287744c-19.296256 18.340864-31.347712 44.23168-31.347712 72.956928 0 55.595008 45.068288 100.663296 100.660224 100.663296 55.596032 0 100.66432-45.068288 100.66432-100.663296C931.019776 775.78752 885.952512 730.720256 830.35648 730.720256L830.35648 730.720256zM830.35648 730.720256" /></svg>