<?xml version="1.0" standalone="no"?><!DOCTYPE svg PUBLIC "-//W3C//DTD SVG 1.1//EN" "http://www.w3.org/Graphics/SVG/1.1/DTD/svg11.dtd"><svg t="1508149985138" class="icon" style="" viewBox="0 0 1024 1024" version="1.1" xmlns="http://www.w3.org/2000/svg" p-id="2390" xmlns:xlink="http://www.w3.org/1999/xlink" width="40" height="40"><defs><style type="text/css"></style></defs><path d="M472.615385 472.615385H196.647385A39.266462 39.266462 0 0 0 157.538462 512c0 21.897846 17.526154 39.384615 39.108923 39.384615H472.615385v275.968c0 21.582769 17.644308 39.108923 39.384615 39.108923 21.897846 0 39.384615-17.526154 39.384615-39.108923V551.384615h275.968A39.266462 39.266462 0 0 0 866.461538 512c0-21.897846-17.526154-39.384615-39.108923-39.384615H551.384615V196.647385A39.266462 39.266462 0 0 0 512 157.538462c-21.897846 0-39.384615 17.526154-39.384615 39.108923V472.615385zM0 512C0 229.218462 229.179077 0 512 0c282.781538 0 512 229.179077 512 512 0 282.781538-229.179077 512-512 512-282.781538 0-512-229.179077-512-512z" fill="#FF7820" p-id="2391"></path></svg>