<?xml version="1.0" standalone="no"?><!DOCTYPE svg PUBLIC "-//W3C//DTD SVG 1.1//EN" "http://www.w3.org/Graphics/SVG/1.1/DTD/svg11.dtd"><svg class="icon" width="40px" height="20.42px" viewBox="0 0 2006 1024" version="1.1" xmlns="http://www.w3.org/2000/svg"><path fill="#ffffff" d="M1127.907945 968.750938H435.479199c-45.899262 0-82.957218-36.928472-82.957218-82.692856V55.249062h830.883203c45.694247 0 82.618672 36.917682 82.618673 82.726576v858.398482c0 15.254795 12.368388 27.623182 27.623182 27.623182s27.623182-12.368388 27.623182-27.623182V137.975638c0-76.322529-61.661201-137.97294-137.865037-137.97294H297.275616v886.055384c0 76.318483 61.836544 137.93922 138.203583 137.93922h692.428746c15.254795 0 27.623182-12.368388 27.623183-27.623182s-12.368388-27.623182-27.623183-27.623182z"  /><path fill="#ffffff" d="M1137.290116 482.953846H832.466681V183.525564c0-12.713678-10.304742-23.021117-23.01842-23.021117-12.713678 0-23.018419 10.307439-23.018419 23.021117v299.426933H481.606407c-12.713678 0-23.021117 10.304742-23.021117 23.01842 0 12.713678 10.307439 23.018419 23.021117 23.018419h304.823435v304.823435c0 12.713678 10.304742 23.021117 23.018419 23.021117 12.713678 0 23.018419-10.307439 23.01842-23.021117V528.990685h304.823435c12.713678 0 23.021117-10.304742 23.021117-23.018419 0-12.713678-10.307439-23.018419-23.021117-23.01842z"  /></svg>