<?xml version="1.0" encoding="utf-8"?>
<!-- Generator: Adobe Illustrator 21.0.0, SVG Export Plug-In . SVG Version: 6.00 Build 0)  -->
<svg version="1.1" id="图层_1" xmlns="http://www.w3.org/2000/svg" xmlns:xlink="http://www.w3.org/1999/xlink" x="0px" y="0px"
	 viewBox="0 0 48 48" style="enable-background:new 0 0 48 48;" xml:space="preserve">
<style type="text/css">
	.st0{fill:#FFFFFF;}
</style>
<path class="st0" d="M11.2,5.9c1.1-0.5,2.1-0.9,3.2-1.3C17.7,3.4,21,2.7,24,2.7s6.3,0.7,9.6,1.9c1.1,0.4,2.2,0.8,3.2,1.3
	c0.6,0.3,1,0.5,1.2,0.6l-0.5-1.9l-4,6.7l1.7-0.5c-0.3-0.2-0.7-0.3-1-0.4c-0.8-0.4-1.7-0.7-2.5-1C29.1,8.5,26.5,8,24,8
	s-5.1,0.5-7.8,1.4c-0.9,0.3-1.7,0.6-2.5,1c-0.5,0.2-0.8,0.4-1,0.4l1.7,0.5l-4-6.7L10,6.5C10.2,6.4,10.6,6.2,11.2,5.9z M8.2,6l4,6.7
	c0.4,0.6,1.1,0.8,1.7,0.5c0.1-0.1,0.4-0.2,0.8-0.4c0.8-0.3,1.5-0.6,2.3-0.9c2.4-0.8,4.7-1.3,6.9-1.3s4.5,0.5,6.9,1.3
	c0.8,0.3,1.6,0.6,2.3,0.9c0.4,0.2,0.7,0.3,0.8,0.4c0.6,0.3,1.4,0.1,1.7-0.5l4-6.7c0.4-0.6,0.2-1.5-0.5-1.8l0,0
	c0.1-0.1,0-0.2-0.2-0.2c-0.3-0.1-0.6-0.3-1-0.5c-1.1-0.5-2.3-1-3.4-1.4C31,0.8,27.4,0,24,0s-7,0.8-10.5,2.1C12.3,2.5,11.1,3,10,3.5
	C9.7,3.7,9.3,3.8,9.1,4C8.9,4.1,8.8,4.1,8.7,4.2C8,4.5,7.8,5.3,8.2,6L8.2,6z"/>
<path class="st0" d="M12.7,23C14.3,29.4,18,33.5,24,33.5s9.8-4,11.5-10.3c1.2-4.3,1.2-10.1,0.4-11.6c-0.4-0.6-1.2-0.9-1.8-0.5
	s-0.9,1.1-0.5,1.8c0.5,0.8,0.4,5.9-0.6,9.7c-1.4,5.3-4.3,8.4-8.9,8.4s-7.4-3.1-8.7-8.4c-0.9-3.8-0.9-8.9-0.4-9.7
	c0.4-0.6,0.1-1.5-0.5-1.8c-0.6-0.4-1.5-0.1-1.8,0.5C11.6,12.9,11.6,18.7,12.7,23z"/>
<path class="st0" d="M34.5,31.9c-2-1.1-4.5-1.2-10.6-1.2c-6.5,0-9.4,0.8-12.3,3.5c-1.5,1.3-8.1,9.5-10,11.6
	c-0.5,0.6-0.4,1.4,0.1,1.9c0.6,0.5,1.4,0.4,1.9-0.1c2.1-2.3,8.5-10.2,9.8-11.4c2.3-2.1,4.7-2.8,10.5-2.8c6.6,0,8.3,0.2,10.1,1.5
	C34,33.8,34.2,32.8,34.5,31.9z"/>
<path class="st0" d="M15.4,22.5c0.7,0.3,1.4,0.1,1.8-0.6c1.1-2.2,3.4-3.3,7.5-3.3c5.2,0,7.7-1.9,8.6-6.4c0.1-0.7-0.3-1.4-1.1-1.6
	c-0.7-0.1-1.4,0.3-1.5,1c-0.6,3.2-2,4.3-6,4.3c-5,0-8.2,1.5-9.9,4.7C14.5,21.4,14.8,22.2,15.4,22.5z"/>
<path class="st0" d="M24.2,43.4c0.4,0.6,1.2,0.8,1.9,0.4c0.6-0.4,0.8-1.2,0.4-1.9c0,0,0,0,0-0.1l-6.7-9.3c-0.4-0.6-1.2-0.8-1.9-0.4
	s-0.8,1.2-0.4,1.9c0,0,0,0,0,0.1C17.6,34.1,24.2,43.4,24.2,43.4z"/>
<path class="st0" d="M21.7,44.4c-0.5,0.5-0.5,1.4,0,1.9s1.3,0.5,1.9,0l8-8c0.5-0.5,0.5-1.4,0-1.9c-0.5-0.5-1.3-0.5-1.9,0L21.7,44.4z
	"/>
<path class="st0" d="M38.6,36c-1.6,0-2.9,1.3-2.9,2.9c0,1.6,1.3,2.9,2.9,2.9c1.6,0,2.9-1.3,2.9-2.9S40.2,36,38.6,36z M38.6,40.8
	c-1.1,0-1.9-0.9-1.9-1.9c0-1.1,0.9-1.9,1.9-1.9c1.1,0,1.9,0.9,1.9,1.9S39.7,40.8,38.6,40.8z M44.7,36.8h-0.3v-0.1h-0.1l0.1-0.1
	c0-0.1-0.1-0.2-0.1-0.3l0,0l0.2-0.2c0.4-0.4,0.6-0.9,0.6-1.4s-0.2-1-0.6-1.4L44.2,33c-0.4-0.4-0.9-0.6-1.4-0.6s-1,0.2-1.4,0.6
	l-0.2,0.2l0,0c-0.1-0.1-0.2-0.1-0.4-0.1h-0.1v-0.3c0-1.1-0.9-1.9-1.9-1.9h-0.4c-1.1,0-1.9,0.9-1.9,1.9v0.3h-0.1
	c-0.1,0-0.2,0.1-0.4,0.1h-0.1L35.7,33c-0.4-0.4-0.9-0.6-1.4-0.6s-1,0.2-1.4,0.6l-0.3,0.3c-0.4,0.4-0.6,0.9-0.6,1.4s0.2,1,0.6,1.4
	l0.2,0.2l0,0c0,0.1-0.1,0.2-0.1,0.3v0.1h-0.3c-1.1,0-1.9,0.9-1.9,1.9V39c0,1.1,0.9,1.9,1.9,1.9h0.3V41c0,0.1,0.1,0.2,0.1,0.3l0,0
	l-0.2,0.2c-0.4,0.4-0.6,0.9-0.6,1.4s0.2,1,0.6,1.4l0.3,0.3c0.4,0.4,0.9,0.6,1.4,0.6s1-0.2,1.4-0.6l0.2-0.2l0,0
	c0.1,0.1,0.2,0.1,0.4,0.1h0.1V45c0,1.1,0.9,1.9,1.9,1.9h0.4c1.1,0,1.9-0.9,1.9-1.9v-0.3h0.1c0.1,0,0.2-0.1,0.4-0.1l0,0l0.2,0.2
	c0.4,0.4,0.9,0.6,1.4,0.6s1-0.2,1.4-0.6l0.3-0.3c0.4-0.4,0.6-0.9,0.6-1.4s-0.2-1-0.6-1.4l-0.2-0.2l0,0c0-0.1,0.1-0.2,0.1-0.3h-0.1
	h0.1l0,0h0.3c1.1,0,1.9-0.9,1.9-1.9v-0.4C46.6,37.6,45.7,36.8,44.7,36.8z M45.7,39.1c0,0.1,0,0.1,0,0.2c0,0,0,0,0,0.1l0,0v0.1v0.1
	l0,0l0,0l-0.1,0.1l0,0l-0.1,0.1C45.4,39.9,45.2,40,45,40l0,0c0,0,0,0-0.1,0h-1v0.1c-0.1,0.5-0.3,1-0.6,1.4v0.1l0.7,0.7
	c0.2,0.2,0.2,0.3,0.3,0.6c0,0.1,0,0.1,0,0.2l0,0v0.1l0,0l0,0v0.1v0.1l0,0l0,0c0,0.1-0.1,0.1-0.1,0.2L43.5,44c0,0-0.1,0.1-0.2,0.1
	l0,0l0,0v0.1l-0.1-0.1c0,0,0,0-0.1,0H43v0.1v-0.1l0,0l0,0h-0.1h-0.1h-0.1c-0.2,0-0.4-0.1-0.6-0.3l-0.7-0.7h-0.1
	c-0.5,0.3-1,0.5-1.5,0.6h-0.1v1c0,0,0,0,0,0.1l0,0c0,0.2-0.1,0.4-0.2,0.5l-0.1,0.1l0,0l-0.1,0.1l0,0l0,0h-0.1h-0.1l0,0
	c0,0,0,0-0.1,0s-0.1,0-0.2,0h-0.4c-0.1,0-0.1,0-0.2,0c0,0,0,0-0.1,0l0,0H38c0,0-0.1,0-0.1-0.1l0,0l0,0l-0.1-0.1l0,0l-0.1-0.1
	c-0.1-0.1-0.2-0.3-0.2-0.5l0,0c0,0,0,0,0-0.1v-1h-0.1c-0.5-0.1-1-0.3-1.5-0.6h-0.1l-0.6,1c-0.2,0.2-0.3,0.2-0.6,0.3h-0.1h-0.1h-0.1
	l0,0l0,0v0.1v-0.1h-0.1h-0.1l0,0l0,0c-0.1,0-0.1-0.1-0.2-0.1l-0.3-0.3c0,0-0.1-0.1-0.1-0.2c0,0,0,0,0-0.1l0,0c0,0,0,0,0-0.1v-0.1
	l0,0l0,0c0,0,0-0.1,0-0.2l0,0c0,0,0-0.1,0-0.2c0-0.2,0.1-0.4,0.3-0.6l0.7-0.7v-0.1c-0.3-0.5-0.5-1-0.6-1.4v-0.1h-1c0,0,0,0-0.1,0
	v0.1v-0.1c-0.2,0-0.4-0.1-0.5-0.2l-0.1-0.1l0,0l-0.1-0.1l0,0H32l0.1-0.1l0,0v-0.1v-0.1l0,0c0,0,0,0,0-0.1s0-0.1,0-0.2v-0.4
	c0-0.1,0-0.1,0-0.2c0,0,0,0,0-0.1l0,0v-0.1c0,0,0-0.1,0.1-0.1l0,0l0,0l0.1-0.1l0,0l0.1-0.1c0.1-0.1,0.3-0.2,0.5-0.2l0,0
	c0,0,0,0,0.1,0h1v-0.1c0.1-0.5,0.3-1,0.6-1.4v-0.1l-0.7-0.7c-0.2-0.2-0.2-0.3-0.3-0.6c0-0.1,0-0.1,0-0.2l0,0v-0.1l0,0l0,0v-0.1v-0.1
	l0,0h-0.1h0.1l0,0c0-0.1,0.1-0.1,0.1-0.2l0.3-0.3c0,0,0.1-0.1,0.2-0.1c0,0,0,0,0.1,0l0,0c0,0,0,0,0.1,0h0.1h0.1l0,0h0.1l0,0l0,0h0.1
	c0.2,0,0.4,0.1,0.6,0.3l0.7,0.7h0.1c0.5-0.3,1-0.5,1.5-0.6h0.1v-1c0,0,0,0,0-0.1l0,0c0-0.2,0.1-0.4,0.2-0.5l0.1-0.1l0,0l0.1-0.1l0,0
	l0,0h0.1h0.1l0,0c0,0,0,0,0.1,0s0.1,0,0.2,0h0.4c0.1,0,0.1,0,0.2,0c0,0,0,0,0.1,0l0,0h0.1c0,0,0.1,0,0.1,0.1l0,0l0,0l0.1,0.1l0,0
	l0.1,0.1c0.1,0.1,0.2,0.3,0.2,0.5l0,0c0,0,0,0,0,0.1v1h0.1c0.5,0.1,1,0.3,1.5,0.6h0.1l0.7-0.7c0.2-0.2,0.3-0.2,0.6-0.3h0.1l0,0l0,0
	h0.1c0,0,0,0,0.1,0l0,0h0.1h0.1l0,0l0,0c0.1,0,0.1,0.1,0.2,0.1l0.3,0.3c0,0,0.1,0.1,0.1,0.2c0,0,0,0,0,0.1l0,0c0,0,0,0,0,0.1v0.1
	l0,0l0,0v0.1l0,0c0,0,0,0.1,0,0.2c0,0.2-0.1,0.4-0.3,0.6L43,36.1v0.1c0.3,0.5,0.5,1,0.6,1.4v0.1h1c0,0,0,0,0.1,0l0,0
	c0.2,0,0.4,0.1,0.5,0.2l0.1,0.1l0,0l0.1,0.1c0,0,0,0,0,0.1l0,0v0.1v0.1l0,0c0,0,0,0,0,0.1s0,0.1,0,0.2L45.7,39.1L45.7,39.1z"/>
</svg>
