<?xml version="1.0" encoding="utf-8"?>
<!-- Generator: Adobe Illustrator 21.0.0, SVG Export Plug-In . SVG Version: 6.00 Build 0)  -->
<svg version="1.1" id="图层_1" xmlns="http://www.w3.org/2000/svg" xmlns:xlink="http://www.w3.org/1999/xlink" x="0px" y="0px"
	 viewBox="0 0 48 48" style="enable-background:new 0 0 48 48;" xml:space="preserve">
<style type="text/css">
	.st0{fill:#FFFFFF;}
</style>
<path class="st0" d="M43.5,49h-6.7V38.6h-0.5c-0.7,1.2-1.9,1.9-3.3,1.9c-1.1,0-2.1-0.5-2.8-1.3V49H2.8l-0.2-1.2
	c-0.1-1-0.1-1.6-0.1-2.3c0-0.3,0-0.7,0-1.1c0-4.9,1.4-10.2,3.9-15.1c2.6-5,6.1-9.1,10.1-11.4c0.4-0.3,0.8-0.6,1.3-0.7l0.2-0.2
	c-0.4-0.4-0.7-0.8-0.8-1.4c-0.2-0.8,0.1-1.8,0.9-2.9c0.4-0.5,1-1.3,1.8-1.6l0.7-3.2c0.1-0.5,0.4-1.7,1.1-2.7l0,0
	c0.3-0.4,1.1-1.6,6-3C30.2,1.5,33,1,34.6,1c0.8,0,1.3,0.1,1.7,0.3c0.9,0.5,2,1.5,2.4,2l0,0c0.1,0.2,0.2,0.3,0.3,0.3l1.7,1.9
	c0.1,0,0.1,0,0.2,0c1.2,0,4,1,4.5,2.6c0.2,0.7,0.1,1.4-0.2,2.1c-0.4,0.7-1,1.2-1.8,1.4l0,0l-2.2,0.6c0.1,0.6,0.2,1.2,0.2,1.7
	c0,5.3-4.4,9.6-9.8,9.6c-1.5,0-3-0.3-4.3-1l8,7.9c0.5-0.1,1.1-0.2,1.6-0.2c1.8,0,3.5,0.7,4.7,2c1.2,1.2,1.9,2.9,1.9,4.6
	C43.5,36.8,43.5,49,43.5,49z M39.7,46.2h0.9v-9.4c0-1-0.4-1.9-1.1-2.6c-0.7-0.7-1.7-1.1-2.7-1.1c-0.5,0-1,0.1-1.5,0.3l-0.9,0.4
	L33.9,33c-0.1-0.1-0.1-0.1-0.2-0.2L20.9,20.2c-0.4-0.4-0.8-0.5-1.3-0.5c-0.2,0-0.4,0-0.5,0.1l-0.2,0.1c-0.2,0.1-0.4,0.2-0.5,0.3
	l-0.1,0.1l-0.1,0.1C11,24.5,5.4,35.1,5.4,44.4c0,0.5,0,0.9,0,1.3c0,0.2,0,0.3,0,0.5h22V31.9l3.7,3.6c0.1,0.1,0.3,0.2,0.4,0.3
	l0.6,0.4l0.1,0.7c0,0.5,0.5,0.8,0.9,0.8c0.5,0,0.8-0.3,0.9-0.7l0-0.1v-0.1c0-1.6,1.3-2.8,2.9-2.8c1.6,0,2.9,1.3,2.9,2.8L39.7,46.2
	L39.7,46.2z M24.5,13.6l0.3,1.5c0.6,3.2,3.5,5.5,6.8,5.5c3.8,0,6.9-3,6.9-6.8c0-0.8-0.1-1.5-0.4-2.3l-0.5-1.4l4.9-1.3
	C42,8.7,41.3,8.4,41,8.4l-1.2,0.3l-2.8-3.1c0,0,0,0-0.1-0.1c-0.3-0.3-1.2-1.2-1.9-1.6c-0.1,0-0.3,0-0.4,0c-1.3,0-3.8,0.4-6,1
	c-3.1,0.9-4.3,1.6-4.5,1.8c-0.4,0.6-0.6,1.4-0.7,1.8l0,0l-1,4.7l-1.2,0.3c-0.3,0.2-0.7,0.7-1,1.2L24.5,13.6z M21.6,17.3
	c0.4,0.2,0.8,0.5,1.2,0.8c-0.2-0.3-0.3-0.7-0.4-1L21.6,17.3L21.6,17.3z"/>
<g>
	<g>
		<path class="st0" d="M17.4,32.3c-2,0-3.6,1.6-3.6,3.6s1.6,3.6,3.6,3.6s3.6-1.6,3.6-3.6C21,33.9,19.4,32.3,17.4,32.3z M17.4,38.3
			c-1.3,0-2.4-1.1-2.4-2.4c0-1.3,1.1-2.4,2.4-2.4s2.4,1.1,2.4,2.4S18.7,38.3,17.4,38.3z M25,33.3h-0.3v-0.1h-0.1l0.1-0.1
			c-0.1-0.1-0.1-0.3-0.2-0.4v-0.1l0.2-0.2c0.5-0.5,0.7-1.1,0.7-1.7s-0.3-1.3-0.7-1.7l-0.3-0.3c-0.5-0.5-1.1-0.7-1.7-0.7
			s-1.3,0.3-1.7,0.7l-0.2,0.2h-0.1c-0.1-0.1-0.3-0.1-0.5-0.2h-0.1v-0.3c0-1.3-1.1-2.4-2.4-2.4h-0.5c-1.3,0-2.4,1.1-2.4,2.4v0.3h-0.1
			c-0.2,0.1-0.3,0.1-0.5,0.2h-0.1l-0.2-0.2c-0.5-0.5-1.1-0.7-1.7-0.7c-0.6,0-1.3,0.3-1.7,0.7L10.2,29c-0.5,0.5-0.7,1.1-0.7,1.7
			s0.3,1.3,0.7,1.7l0.2,0.2v0.1c-0.1,0.1-0.1,0.3-0.2,0.4v0.1H9.9c-1.3,0-2.4,1.1-2.4,2.4v0.5c0,1.3,1.1,2.4,2.4,2.4h0.3v0.1
			c0.1,0.1,0.1,0.3,0.2,0.4v0.1l-0.2,0.2c-0.5,0.5-0.7,1.1-0.7,1.7s0.3,1.3,0.7,1.7l0.3,0.3c0.5,0.5,1.1,0.7,1.7,0.7
			c0.6,0,1.3-0.3,1.7-0.7l0.2-0.2h0.1c0.1,0.1,0.3,0.1,0.5,0.2h0.1v0.3c0,1.3,1.1,2.4,2.4,2.4h0.5c1.3,0,2.4-1.1,2.4-2.4V43h0.1
			c0.2-0.1,0.3-0.1,0.5-0.2h0.1L21,43c0.5,0.5,1.1,0.7,1.7,0.7s1.3-0.3,1.7-0.7l0.3-0.3c0.5-0.5,0.7-1.1,0.7-1.7
			c0-0.6-0.3-1.3-0.7-1.7l-0.3-0.2V39c0.1-0.1,0.1-0.3,0.2-0.4h-0.1h0.1v-0.1h0.3c1.3,0,2.4-1.1,2.4-2.4v-0.5
			C27.4,34.3,26.3,33.3,25,33.3z M26.2,36.1c0,0.1,0,0.2,0,0.2v0.1l0,0v0.1c0,0,0,0.1-0.1,0.1l0,0c0,0,0,0,0,0.1S26,36.8,26,36.8
			l0,0c0,0-0.1,0.1-0.2,0.1c-0.2,0.1-0.4,0.2-0.6,0.2l0,0h-0.1h-1.2v0.1c-0.2,0.6-0.4,1.2-0.8,1.8v0.1L24,40
			c0.2,0.2,0.3,0.4,0.4,0.7c0,0.1,0,0.1,0,0.2c0,0,0,0,0,0.1s0,0.1,0,0.2c0,0,0,0,0,0.1v0.1v0.1c0,0,0,0.1-0.1,0.1l0,0
			c0,0,0,0,0,0.1s-0.1,0.1-0.2,0.2l-0.3,0.3c-0.1,0.1-0.1,0.1-0.2,0.2c0,0,0,0-0.1,0l0,0l0.1,0.1l-0.1-0.1h-0.1h-0.1v0.1l-0.1-0.1
			l0,0c0,0,0,0-0.1,0s-0.1,0-0.2,0h-0.1c0,0-0.1,0-0.2,0c-0.3,0-0.5-0.2-0.7-0.3L21,41.2h-0.1c-0.6,0.4-1.2,0.6-1.8,0.8H19v1.2v0.1
			l0,0c0,0.2-0.1,0.5-0.3,0.6c0,0.1-0.1,0.1-0.1,0.2l0,0l-0.1,0.1c0,0,0,0-0.1,0l0,0c0,0-0.1,0-0.1,0.1h-0.1l0,0c0,0,0,0-0.1,0
			s-0.2,0-0.2,0h-0.5c-0.1,0-0.2,0-0.2,0s0,0-0.1,0l0,0H17c0,0-0.1,0-0.1-0.1l0,0c0,0,0,0-0.1,0s-0.1-0.1-0.1-0.1l0,0
			c0,0-0.1-0.1-0.1-0.2c-0.1-0.2-0.2-0.4-0.2-0.6l0,0c0,0,0,0,0-0.1V42h-0.1c-0.6-0.2-1.2-0.4-1.8-0.8h-0.1l-0.9,0.9
			c-0.2,0.2-0.4,0.3-0.7,0.4c-0.1,0-0.1,0-0.2,0h-0.1c-0.1,0-0.1,0-0.2,0c0,0,0,0-0.1,0l0,0v0.1v-0.1h-0.1c0,0-0.1,0-0.1-0.1l0,0
			c0,0,0,0-0.1,0s-0.1-0.1-0.2-0.2L11,42c-0.1-0.1-0.1-0.1-0.2-0.2c0,0,0,0,0-0.1l0,0c0,0,0-0.1-0.1-0.1v-0.1v-0.1c0,0,0,0,0-0.1
			s0-0.1,0-0.2l0,0c0-0.1,0-0.1,0-0.2c0-0.3,0.2-0.5,0.3-0.7l0.9-0.9v-0.1c-0.4-0.6-0.6-1.2-0.8-1.8v-0.1H9.9H9.8v0.1v-0.1
			c-0.2,0-0.5-0.1-0.6-0.3c-0.1,0-0.1-0.1-0.1-0.1l0,0L9,36.8l0,0H8.9L9,36.7l0,0c0,0,0-0.1-0.1-0.1v-0.1l0,0c0,0,0,0,0-0.1
			s0-0.2,0-0.2v-0.5c0-0.1,0-0.2,0-0.2v-0.1v-0.1v-0.1c0,0,0-0.1,0.1-0.1l0,0c0,0,0,0,0-0.1s0.1-0.1,0.1-0.2l0,0
			c0,0,0.1-0.1,0.2-0.1c0.2-0.1,0.4-0.2,0.6-0.2l0,0c0,0,0,0,0.1,0h1.2v-0.1c0.2-0.6,0.4-1.2,0.8-1.8v-0.1l-0.9-0.9
			c-0.2-0.2-0.3-0.4-0.4-0.7c0-0.1,0-0.1,0-0.2l0,0c0-0.1,0-0.1,0-0.2c0,0,0,0,0-0.1v-0.1v-0.1c0,0,0-0.1,0.1-0.1l0,0h-0.1h0.1
			c0,0,0,0,0-0.1s0.1-0.1,0.2-0.2l0.3-0.3c0.1-0.1,0.1-0.1,0.2-0.2c0,0,0,0,0.1,0l0,0h0.1h0.1h0.1c0,0,0,0,0.1,0s0.1,0,0.2,0l0,0
			l0,0c0.1,0,0.1,0,0.2,0c0.3,0,0.5,0.2,0.7,0.3l0.9,0.9h0.1c0.6-0.4,1.2-0.6,1.8-0.8H16v-1.2v-0.1l0,0c0-0.2,0.1-0.5,0.3-0.6
			c0-0.1,0.1-0.1,0.1-0.2l0,0l0.1-0.1c0,0,0,0,0.1,0l0,0c0,0,0.1,0,0.1-0.1h0.1h0.1c0,0,0,0,0.1,0s0.2,0,0.2,0h0.5
			c0.1,0,0.2,0,0.2,0s0,0,0.1,0l0,0h0.1c0,0,0.1,0,0.1,0.1l0,0l0,0c0.1,0,0.1,0.1,0.1,0.1l0,0c0,0,0.1,0.1,0.1,0.2
			c0.1,0.2,0.2,0.4,0.2,0.6l0,0c0,0,0,0,0,0.1v1.2h0.1c0.6,0.2,1.2,0.4,1.8,0.8h0.1l0.9-0.9c0.2-0.2,0.4-0.3,0.7-0.3
			c0.1,0,0.1,0,0.2,0l0,0c0,0,0,0,0.1,0c0,0,0.1,0,0.2,0c0,0,0,0,0.1,0l0,0h0.1c0,0,0.1,0,0.1,0.1l0,0c0,0,0,0,0.1,0
			s0.1,0.1,0.2,0.2l0.3,0.3c0.1,0.1,0.1,0.1,0.2,0.2c0,0,0,0,0,0.1l0,0v0.1v0.1v0.1c0,0,0,0,0,0.1s0,0.1,0,0.2l0,0
			c0,0.1,0,0.1,0,0.2c0,0.3-0.2,0.5-0.3,0.7l-0.9,0.9v0.1c0.4,0.6,0.6,1.2,0.8,1.8v0.1h1.2h0.1l0,0c0.2,0,0.5,0.1,0.6,0.3
			c0.1,0,0.1,0.1,0.2,0.1l0,0l0.1,0.1c0,0,0,0,0,0.1l0,0c0,0,0,0.1,0.1,0.1v0.1v0.1c0,0,0,0,0,0.1s0,0.2,0,0.2L26.2,36.1L26.2,36.1z
			"/>
	</g>
</g>
</svg>
