<?xml version="1.0" standalone="no"?><!DOCTYPE svg PUBLIC "-//W3C//DTD SVG 1.1//EN" "http://www.w3.org/Graphics/SVG/1.1/DTD/svg11.dtd"><svg class="icon" width="48px" height="48.00px" viewBox="0 0 1024 1024" version="1.1" xmlns="http://www.w3.org/2000/svg"><path fill="#000000" d="M513.95584 326.9376c-100.28544 0-181.8624 81.55648-181.8624 181.82656s81.57696 181.8624 181.8624 181.8624 181.82656-81.59232 181.82656-181.8624-81.54112-181.82656-181.82656-181.82656z m0 303.61088c-67.15392 0-121.75872-54.62016-121.75872-121.78432s54.64576-121.78432 121.75872-121.78432 121.75872 54.62016 121.75872 121.78432-54.6048 121.78432-121.75872 121.78432z m385.33632-256.896h-17.57696l-1.3824-3.65056-4.8896 2.1248 4.25472-3.5072a387.15392 387.15392 0 0 0-8.7552-21.16096l-1.41824-3.15392 12.43648-12.47744c23.31648-23.28576 36.18304-54.30272 36.18304-87.26528s-12.8256-63.9744-36.18304-87.30112l-16.47616-16.51712c-23.31648-23.3216-54.3232-36.15232-87.31648-36.15232a122.61888 122.61888 0 0 0-87.28064 36.15232l-12.43648 12.47744-3.15392-1.41824a369.75616 369.75616 0 0 0-22.9632-9.3952l-3.2256-1.23904v-17.72032C649.10848 55.36256 593.72544 0 525.64992 0h-23.35232C434.22208 0 378.83392 55.3984 378.83392 123.45344v17.72032l-3.2256 1.2032a387.712 387.712 0 0 0-22.9632 9.42592l-3.18976 1.3824-12.43648-12.4416c-23.31648-23.3216-54.3232-36.15232-87.28064-36.15232S185.77408 117.4272 162.4576 140.7488l-16.54784 16.51712c-23.31648 23.3216-36.1472 54.30272-36.1472 87.30112 0 32.96256 12.8256 63.9744 36.18304 87.30112l12.43648 12.47744-1.41824 3.11808a400.39424 400.39424 0 0 0-8.78592 21.23264l-1.98656 4.96128h-17.6128C60.50816 373.65248 5.12 429.05088 5.12 497.10592v23.35744c0 68.08576 55.38816 123.45344 123.46368 123.45344h17.57696l1.98656 5.03296a379.23328 379.23328 0 0 0 8.7552 21.1968l1.41824 3.11808-12.43648 12.47744c-23.31648 23.3216-36.1472 54.30272-36.1472 87.30112 0 32.9984 12.8256 63.9744 36.1472 87.30112l16.512 16.51712c23.31648 23.3216 54.3232 36.15232 87.28064 36.15232s63.96416-12.83072 87.28064-36.15232l12.47232-12.4416 3.15392 1.41824a388.91008 388.91008 0 0 0 22.9632 9.3952l3.2256 1.23904v17.68448c0 68.08576 55.38816 123.45344 123.46368 123.45344h23.35232c68.07552 0 123.46368-55.3984 123.46368-123.45344v-17.68448l3.2256-1.23904a366.6176 366.6176 0 0 0 22.9632-9.3952l3.11808-1.41824 12.47232 12.4416c23.31648 23.3216 54.28736 36.15232 87.28064 36.15232 32.99328 0 64-12.83072 87.31648-36.15232l16.512-16.51712c23.31648-23.28576 36.18304-54.30272 36.18304-87.30112 0-32.9984-12.8256-64.01024-36.18304-87.30112l-12.43648-12.47744 1.41824-3.15392c2.83648-6.23616 5.66784-13.184 8.78592-21.23264l-4.96128-1.91488 5.77536 0.07168 1.16736-3.11808h17.57696c68.07552 0 123.46368-55.3984 123.46368-123.45344v-23.35744c0.0256-68.05504-55.36256-123.45344-123.43808-123.45344z m63.39584 146.81088c0 4.03968-0.42496 8.18688-1.27488 12.36992-0.2816 1.45408-0.70656 2.65728-1.02912 3.6864l-0.7424 2.4832c-0.42496 1.59744-0.9216 3.43552-1.69984 5.3504-0.81408 1.98656-1.80736 3.72224-3.15392 6.20032l-0.64 1.2032c-0.42496 0.81408-0.9216 1.77152-1.59232 2.83648-1.73568 2.69312-3.6864 5.0688-5.91872 7.61856a18.06848 18.06848 0 0 1-1.06496 1.27488c-2.16064 2.304-4.64384 4.53632-8.36096 7.44448a63.34976 63.34976 0 0 1-32.14336 12.33408 18.89792 18.89792 0 0 0-1.87904 0.21504 28.06784 28.06784 0 0 1-3.86048 0.31744h-62.22848l-0.99328 4.03968c-7.79776 31.50848-20.91008 62.52544-38.97856 92.19072l-2.19648 3.57888 44.57984 44.59008c9.67168 9.6768 15.80544 22.15424 17.82272 37.00224 0.49664 3.79392 0.64 7.0912 0.53248 10.10176-0.03584 0.7424-0.10752 1.3824-0.21504 2.54976-0.1792 2.62144-0.4608 5.67296-1.13152 8.71936-0.24576 1.13664-0.60416 2.1248-0.84992 2.944l-0.77824 2.69312c-0.49664 1.62816-1.02912 3.47136-1.87904 5.49376-0.7424 1.8432-1.664 3.4048-3.08224 5.91872l-0.81408 1.48992c-0.42496 0.84992-0.95744 1.95072-1.69984 3.0464a66.2272 66.2272 0 0 1-7.86944 9.64096l-16.54784 16.51712a65.50016 65.50016 0 0 1-9.67168 7.90528c-1.1008 0.7424-2.1248 1.23904-2.93888 1.664l-1.48992 0.77824 2.62144 4.608-3.93216-3.8656c-1.3824 0.77824-2.93888 1.664-4.74624 2.41152a40.4736 40.4736 0 0 1-5.27872 1.77152l1.48992 5.10464-3.08224-4.64384-1.31072 0.42496a21.27872 21.27872 0 0 1-2.87232 0.77824c-3.11808 0.70656-6.16448 0.99328-8.46848 1.16736l-4.85376 0.2816c-2.47808 0-5.1712-0.21504-9.07264-0.67584-13.89056-1.95072-26.32704-8.07936-36.00384-17.72032l-44.50816-44.55424-3.57888 2.19648c-29.73184 18.14528-60.73856 31.29856-92.24192 39.06048l-4.03968 0.99328v62.10048c0 1.5616-0.1792 2.944-0.31744 3.93216l-0.21504 1.69984c-1.06496 11.8016-5.31456 22.93248-12.89728 32.9984a61.3376 61.3376 0 0 1-6.912 7.6544c-0.49664 0.4608-0.9216 0.81408-1.87904 1.52576-2.08896 1.80736-4.4288 3.72224-7.0144 5.42208a34.70336 34.70336 0 0 1-3.0464 1.69984l-1.62816 0.84992c-1.62816 0.9216-3.47136 1.95072-5.632 2.87232-1.87904 0.7424-3.6864 1.23904-6.48704 2.0224l-1.48992 0.4608c-0.9216 0.31744-2.08896 0.70656-3.47136 0.95744a64.1024 64.1024 0 0 1-12.40064 1.23904h-23.35232c-4.11136 0-8.25856-0.42496-12.40064-1.23904-1.34656-0.2816-2.47808-0.67584-3.6864-1.06496l-2.51392-0.7424a47.1296 47.1296 0 0 1-5.31456-1.69984c-2.08896-0.88576-3.93216-1.91488-6.37952-3.26144l-1.2032-0.64a17.3056 17.3056 0 0 1-2.62144-1.48992c-2.7648-1.77152-5.10464-3.72224-7.54688-5.84704-0.35328-0.2816-0.84992-0.64-1.45408-1.2032-2.304-2.16064-4.57216-4.64384-7.4752-8.43776a63.0528 63.0528 0 0 1-12.2624-32.04096l-0.21504-1.80736c-0.14336-1.06496-0.35328-2.41152-0.35328-3.93216v-62.06464l-4.03968-0.99328c-31.50336-7.79776-62.54592-20.94592-92.24192-39.06048l-3.57888-2.19648-44.43648 44.62592c-9.67168 9.64096-22.11328 15.77472-36.8896 17.82784-3.01056 0.35328-5.66784 0.56832-8.15104 0.56832l-4.53632-0.24576c-2.5856-0.21504-5.632-0.49664-8.82176-1.2032-1.1008-0.21504-2.05312-0.53248-2.83648-0.77824l-1.5616-0.4608-1.45408 5.10464v-5.5296c-1.5616-0.4608-3.33312-0.95744-5.20704-1.77152-1.8432-0.7424-3.47136-1.69984-6.02624-3.15392l-1.5616-0.81408a33.09568 33.09568 0 0 1-2.93888-1.62816 68.1984 68.1984 0 0 1-9.64096-7.86944L188.416 817.8688a64.59904 64.59904 0 0 1-7.86944-9.71264c-0.7424-1.1008-1.27488-2.19648-2.0224-3.61472l-1.1008-1.98656c-0.81408-1.45408-1.73568-3.0464-2.54976-4.99712a46.21824 46.21824 0 0 1-1.80736-5.38624l-0.84992-2.90816c-0.24576-0.7424-0.56832-1.664-0.77824-2.69312-0.67584-3.01056-0.9216-6.02624-1.27488-9.856l-0.10752-1.41824c-0.10752-3.08224 0.03584-6.37952 0.64-11.20256 1.95072-13.85984 8.07936-26.30144 17.72032-35.9424l44.57984-44.59008-2.19648-3.57888c-18.0736-29.66528-31.18592-60.68224-39.0144-92.19072l-0.99328-4.03968h-62.208c-1.52576 0-2.87232-0.1792-4.03968-0.35328l-0.70656 5.248-0.88576-5.45792c-11.83744-1.06496-22.99904-5.31456-33.02912-12.9024a65.152 65.152 0 0 1-7.54688-6.76864 23.77216 23.77216 0 0 1-1.62816-2.0224 63.11424 63.11424 0 0 1-5.42208-7.05536c-0.60416-0.88576-1.02912-1.73568-1.41824-2.44736l-4.85376 2.16064 4.18304-3.47136-0.64-1.16736c-0.84992-1.5616-1.8432-3.29728-2.69312-5.3504-0.77824-1.91488-1.27488-3.72224-2.0224-6.4512l-0.4608-1.48992a29.88544 29.88544 0 0 1-0.99328-3.57888 63.232 63.232 0 0 1-1.27488-12.36992v-23.35744c0-4.1472 0.42496-8.25856 1.27488-12.36992 0.2816-1.45408 0.70656-2.65728 1.02912-3.6864l0.77824-2.5856c0.42496-1.5616 0.9216-3.36896 1.664-5.21216 0.81408-1.98656 1.77152-3.6864 3.18976-6.272l0.64-1.23904c0.38912-0.7424 0.88576-1.73568 1.5616-2.80064 1.69984-2.65728 3.61472-4.8896 5.9904-7.76192a14.9504 14.9504 0 0 1 0.99328-1.16736c2.16064-2.33984 4.64384-4.57216 8.32512-7.44448a62.98624 62.98624 0 0 1 32.24576-12.29824l1.73568-0.21504c1.06496-0.14336 2.41152-0.35328 3.93216-0.35328h62.22848l0.99328-4.03968c7.79776-31.54432 20.91008-62.52544 38.97856-92.19072l2.19648-3.57888-44.50816-44.3392c-9.64096-9.64096-15.7696-22.08256-17.82272-37.07392a59.61216 59.61216 0 0 1-0.53248-10.06592l0.21504-2.4832c0.24576-2.7648 0.49664-5.73952 1.16736-8.82688 0.21504-1.1008 0.56832-2.08896 0.77824-2.87232l0.9216-3.08224c0.4608-1.52576 0.95744-3.26144 1.69984-5.03296 0.77824-1.8432 1.69984-3.5072 2.54976-4.92544l0.67584-1.23904-4.608-2.51904 5.38624 1.16736c0.42496-0.84992 0.95744-1.91488 1.69984-3.0464 2.304-3.5072 4.96128-6.7328 7.86944-9.64096l16.47616-16.51712a70.02624 70.02624 0 0 1 9.67168-7.90528c1.1008-0.70656 2.16064-1.23904 3.2256-1.80736l2.37568-1.31072c1.45408-0.77824 3.08224-1.69984 4.92544-2.4832a45.34272 45.34272 0 0 1 5.17632-1.77152l3.18976-0.95744c0.7424-0.21504 1.62816-0.53248 2.7648-0.7424 3.11808-0.70656 6.23616-0.95744 9.42592-1.2032 0.4608-0.03584 0.99328-0.10752 1.77152-0.14336l1.87904-0.03584c2.54976 0 5.20704 0.1792 9.3184 0.67584 13.85472 1.95072 26.29632 8.07936 35.93216 17.72032l44.50816 44.55424 3.57888-2.19648c29.62432-18.10944 60.66688-31.26272 92.24192-39.06048l4.03968-0.99328V123.4176c0-1.5616 0.1792-2.944 0.31744-3.968l0.21504-1.664c1.06496-11.8016 5.31456-22.93248 12.89728-32.9984 2.304-2.944 4.53632-5.45792 6.912-7.6544 0.53248-0.49664 0.99328-0.84992 1.8432-1.52576 2.1248-1.80736 4.4288-3.75808 7.08608-5.42208 0.95744-0.64 1.87904-1.1008 3.15392-1.77152l1.34656-0.70656c1.664-0.9216 3.57888-2.0224 5.73952-2.90816 1.87904-0.77824 3.6864-1.27488 5.31456-1.69984l2.69312-0.81408c0.9216-0.31744 2.08896-0.70656 3.47136-0.95744a63.74912 63.74912 0 0 1 12.36992-1.23904h23.35232c4.11136 0 8.25856 0.42496 12.43648 1.27488 1.31072 0.24576 2.41152 0.64 3.65056 1.02912l2.47808 0.7424c1.59232 0.42496 3.39968 0.9216 5.31456 1.69984 2.1248 0.84992 3.968 1.91488 6.34368 3.2256l1.62816 0.81408c0.67584 0.35328 1.45408 0.7424 2.23232 1.27488 2.65728 1.73568 4.99712 3.65056 7.61856 5.88288 0.31744 0.2816 0.81408 0.64 1.3824 1.16736 2.33984 2.19648 4.608 4.67968 7.4752 8.40192 6.97856 9.28768 11.19744 20.41344 12.33408 32.46592l0.1792 1.5616c0.14336 1.06496 0.31744 2.33984 0.31744 3.82976v62.06464l4.03968 0.99328c31.5392 7.79776 62.58176 20.94592 92.24192 39.06048l3.57888 2.19648 44.544-44.55424c9.64096-9.60512 22.07744-15.73888 37.20704-17.792a59.32032 59.32032 0 0 1 8.04352-0.56832l1.87904 0.03584c0.70656 0 1.31072 0.10752 2.5856 0.24576 2.37568 0.1792 5.49376 0.4608 8.64768 1.13664 1.13152 0.24576 2.1248 0.56832 4.18304 1.2032l1.5616 0.4608c1.59232 0.4608 3.43552 0.99328 5.3504 1.80736 1.91488 0.77824 3.54304 1.73568 6.02624 3.15392l1.69984 0.88576c0.77824 0.42496 1.77152 0.88576 2.83648 1.59744 3.47136 2.33984 6.69696 4.99712 9.60512 7.8336l16.512 16.55296a65.28 65.28 0 0 1 7.8336 9.60512c0.7424 1.1008 1.27488 2.19648 1.98656 3.57888l1.16736 2.08384c0.77824 1.45408 1.73568 3.0464 2.47808 4.8896 0.81408 1.95072 1.3824 3.79392 1.8432 5.49376l0.84992 2.83648c0.24576 0.7424 0.53248 1.664 0.77824 2.69312 0.70656 3.11808 0.95744 6.1696 1.23904 9.4976 0.03584 0.4608 0.10752 1.1008 0.14336 1.73568 0.10752 3.11808-0.03584 6.48704-0.60416 11.20256-1.95072 13.85984-8.07936 26.30144-17.72032 36.00896l-44.57984 44.55424 2.19648 3.57888c18.0736 29.66528 31.18592 60.68224 38.97856 92.19072l0.99328 4.03968h62.22848c1.52576 0 2.87232 0.1792 3.93216 0.35328l1.73568 0.21504c11.8016 1.06496 22.9632 5.31456 33.02912 12.9024 2.93888 2.26816 5.38624 4.50048 7.69024 6.94784 0.38912 0.38912 0.67584 0.77824 1.52576 1.87904 1.80736 2.08896 3.6864 4.3264 5.38624 6.98368 0.64 0.95744 1.1008 1.91488 2.08896 3.82976l0.67584 1.2032c0.84992 1.52576 1.80736 3.26144 2.62144 5.21216 0.70656 1.77152 1.16736 3.47136 1.59232 4.99712l0.84992 2.80064c0.31744 0.99328 0.7424 2.23232 1.02912 3.6864 0.81408 4.1472 1.27488 8.33024 1.27488 12.36992v23.3216h-0.1024z"  /></svg>