<?xml version="1.0" encoding="utf-8"?>
<!-- Generator: Adobe Illustrator 21.0.0, SVG Export Plug-In . SVG Version: 6.00 Build 0)  -->
<svg version="1.1" id="图层_1" xmlns="http://www.w3.org/2000/svg" xmlns:xlink="http://www.w3.org/1999/xlink" x="0px" y="0px"
	 viewBox="0 0 48 40.9" style="enable-background:new 0 0 48 40.9;" xml:space="preserve">
<style type="text/css">
	.st0{fill:#FFFFFF;}
</style>
<path class="st0" d="M17.2,23.3c0.4,0.2,0.9,0.4,1.4,0.4h18.6c1.2,0,2.3-0.7,2.8-1.8l7.8-16c0.4-0.8,0.1-1.7-0.7-2.1
	c-0.2-0.1-0.5-0.2-0.7-0.2H10.4L6.7,0H0v3.1h5.4l2.6,2.6c0,0.1,0,0.2,0.1,0.2l7.2,14.7L12,25.5c-1,1.6-0.6,3.6,0.9,4.7
	c0.6,0.4,1.2,0.6,1.9,0.6h27.9v-3.1H14.8c-0.1,0-0.2-0.1-0.2-0.2c0,0,0-0.1,0-0.1L17.2,23.3z M27.9,7.4c3.5,0,6.3,2.8,6.3,6.3
	S31.4,20,27.9,20s-6.3-2.8-6.3-6.3S24.5,7.4,27.9,7.4C27.9,7.4,27.9,7.4,27.9,7.4z M16.2,31.8c-2.5,0-4.5,2-4.5,4.5
	c0,2.5,2,4.5,4.5,4.5c2.5,0,4.5-2,4.5-4.5l0,0C20.8,33.9,18.7,31.8,16.2,31.8z M38.2,31.8c-2.5,0-4.5,2-4.5,4.5c0,2.5,2,4.5,4.5,4.5
	s4.5-2,4.5-4.5S40.7,31.8,38.2,31.8z M24.2,17.4c0.3,0.3,0.8,0.3,1.1,0l2.6-2.6l2.6,2.6c0.3,0.3,0.8,0.2,1.1-0.1
	c0.3-0.3,0.3-0.7,0-1L29,13.7l2.6-2.6c0.3-0.3,0.2-0.8-0.1-1.1c-0.3-0.3-0.7-0.3-1,0l-2.6,2.6L25.3,10c-0.3-0.3-0.8-0.4-1.1-0.1
	c-0.3,0.3-0.4,0.8-0.1,1.1c0,0,0.1,0.1,0.1,0.1l2.6,2.6l-2.6,2.6C23.9,16.6,23.9,17.1,24.2,17.4C24.2,17.4,24.2,17.4,24.2,17.4z"/>
</svg>
